<svg width="18" height="18" viewBox="0 0 18 18" fill="none" xmlns="http://www.w3.org/2000/svg">
<path d="M8.16003 17.7601C6.57602 17.7601 5.16002 17.4001 3.91201 16.6801C2.68001 15.9761 1.72001 14.992 1.032 13.728C0.344001 12.448 0 10.992 0 9.36003C0 7.53602 0.384001 5.92002 1.152 4.51202C1.93601 3.08801 3.02401 1.98401 4.41601 1.2C5.80802 0.400002 7.39202 0 9.16803 0C10.752 0 12.16 0.336001 13.392 1.008C14.64 1.66401 15.608 2.58401 16.2961 3.76801C17.0001 4.95202 17.3521 6.30402 17.3521 7.82403C17.3521 8.94403 17.1601 9.95203 16.7761 10.848C16.3921 11.744 15.856 12.456 15.168 12.984C14.48 13.512 13.696 13.8 12.816 13.848L11.88 13.896L11.4 12.36C11 12.856 10.472 13.264 9.81603 13.584C9.16003 13.904 8.52003 14.064 7.89602 14.064C6.85602 14.064 6.00802 13.76 5.35202 13.152C4.71201 12.544 4.39201 11.752 4.39201 10.776C4.39201 9.76803 4.78401 8.94403 5.56802 8.30403C6.35202 7.66402 7.36802 7.34402 8.61603 7.34402H11.04V6.79202C11.04 6.13602 10.824 5.60802 10.392 5.20802C9.97603 4.79201 9.42403 4.58401 8.73603 4.58401C8.14403 4.58401 7.56002 4.72802 6.98402 5.01602C6.40802 5.30402 5.96002 5.68002 5.64002 6.14402L4.77602 5.20802C5.19202 4.64801 5.76802 4.19201 6.50402 3.84001C7.24002 3.47201 7.99202 3.28801 8.76003 3.28801C9.89603 3.28801 10.816 3.64801 11.52 4.36801C12.224 5.08802 12.576 6.02402 12.576 7.17602V10.896C12.576 11.456 12.664 11.984 12.84 12.48C13.688 12.368 14.384 11.896 14.928 11.064C15.472 10.216 15.744 9.16803 15.744 7.92003C15.744 6.67202 15.464 5.56802 14.904 4.60802C14.36 3.63201 13.584 2.87201 12.576 2.32801C11.584 1.78401 10.448 1.51201 9.16803 1.51201C7.72802 1.51201 6.44002 1.84801 5.30402 2.52001C4.18401 3.17601 3.31201 4.09601 2.68801 5.28002C2.06401 6.46402 1.75201 7.81603 1.75201 9.33603C1.75201 10.68 2.03201 11.88 2.59201 12.936C3.15201 13.976 3.92801 14.784 4.92002 15.36C5.92802 15.9521 7.07202 16.2481 8.35203 16.2481C9.08803 16.2481 9.82403 16.1521 10.56 15.9601C11.296 15.7841 11.88 15.552 12.312 15.264L12.936 16.5121C12.408 16.8801 11.696 17.1761 10.8 17.4001C9.92003 17.6401 9.04003 17.7601 8.16003 17.7601ZM8.06402 12.792C8.54403 12.792 9.00803 12.672 9.45603 12.432C9.92003 12.192 10.296 11.896 10.584 11.544C10.888 11.176 11.04 10.832 11.04 10.512V8.54403H8.73603C7.88803 8.54403 7.21602 8.74403 6.72002 9.14403C6.22402 9.54403 5.97602 10.08 5.97602 10.752C5.97602 11.408 6.18402 11.912 6.60002 12.264C7.01602 12.616 7.50402 12.792 8.06402 12.792Z" fill="#F794A4"/>
</svg>
