<svg width="40" height="40" viewBox="0 0 40 40" fill="none" xmlns="http://www.w3.org/2000/svg">
<circle cx="20" cy="20" r="20" fill="#F794A4"/>
<path fill-rule="evenodd" clip-rule="evenodd" d="M14.6384 13.3345H24.6329C24.8139 13.3345 24.9606 13.4839 24.9606 13.6682V20.3408H26.2713V13.6682C26.2713 12.7469 25.5378 12 24.6329 12H14.6384C13.7336 12 13 12.7469 13 13.6682V27.0135C13 27.9348 13.7336 28.6816 14.6384 28.6816H20.373V27.3471H14.6384C14.4575 27.3471 14.3107 27.1977 14.3107 27.0135V13.6682C14.3107 13.4839 14.4575 13.3345 14.6384 13.3345Z" fill="white"/>
<path fill-rule="evenodd" clip-rule="evenodd" d="M25.0443 22.3301L22.9753 27.049L23.1382 27.7574L23.7947 27.4089L25.8591 22.7004L25.0443 22.3301ZM24.9962 21.2121C24.7484 21.0994 24.4577 21.2127 24.347 21.4651L22.0101 26.7949C21.9663 26.8948 21.9559 27.0065 21.9804 27.113L22.3253 28.6133C22.3985 28.9315 22.7466 29.0941 23.0312 28.943L24.401 28.2158C24.4993 28.1636 24.5774 28.0791 24.6226 27.976L26.9572 22.6514C27.0678 22.399 26.9566 22.1031 26.7087 21.9904L24.9962 21.2121Z" fill="white"/>
<path fill-rule="evenodd" clip-rule="evenodd" d="M15.9492 16.0036C15.9492 15.6351 16.2426 15.3363 16.6046 15.3363H22.8306C23.1926 15.3363 23.486 15.6351 23.486 16.0036C23.486 16.3721 23.1926 16.6709 22.8306 16.6709H16.6046C16.2426 16.6709 15.9492 16.3721 15.9492 16.0036Z" fill="white"/>
<path fill-rule="evenodd" clip-rule="evenodd" d="M15.9492 18.339C15.9492 17.9705 16.2426 17.6718 16.6046 17.6718H22.8306C23.1926 17.6718 23.486 17.9705 23.486 18.339C23.486 18.7075 23.1926 19.0063 22.8306 19.0063H16.6046C16.2426 19.0063 15.9492 18.7075 15.9492 18.339Z" fill="white"/>
<path fill-rule="evenodd" clip-rule="evenodd" d="M15.9492 20.6745C15.9492 20.3059 16.2426 20.0072 16.6046 20.0072H22.8306C23.1926 20.0072 23.486 20.3059 23.486 20.6745C23.486 21.043 23.1926 21.3417 22.8306 21.3417H16.6046C16.2426 21.3417 15.9492 21.043 15.9492 20.6745Z" fill="white"/>
</svg>
