<svg width="40" height="40" viewBox="0 0 40 40" fill="none" xmlns="http://www.w3.org/2000/svg">
<circle cx="20" cy="20" r="20" fill="#F794A4"/>
<path fill-rule="evenodd" clip-rule="evenodd" d="M26.2711 16.7215C26.5645 16.8337 26.8397 17.0072 27.0759 17.2433C27.9756 18.143 27.9756 19.6069 27.0758 20.5067C26.5554 21.0272 25.8299 21.2596 25.1168 21.1582C25.2155 21.8528 24.9984 22.5841 24.4652 23.1173C23.5655 24.017 22.1016 24.0169 21.202 23.1173C20.8428 22.7581 20.6275 22.3091 20.5551 21.8419C20.0878 21.6889 19.6508 21.4527 19.2621 21.1412L17.9524 22.4509L18.9314 23.4299C19.0179 23.5165 19.0665 23.6338 19.0665 23.7562C19.0665 23.8786 19.0179 23.996 18.9314 24.0825C18.3981 24.6158 17.6741 24.834 16.9733 24.7353L14.3628 27.3458C13.823 27.8856 12.9446 27.8856 12.4048 27.3458C11.8651 26.806 11.8651 25.9276 12.4048 25.3878L15.0164 22.7764C14.9183 22.0823 15.1355 21.3519 15.6681 20.8192C15.7547 20.7327 15.872 20.684 15.9945 20.684C16.1168 20.684 16.2342 20.7327 16.3208 20.8192L17.2998 21.7982L18.6095 20.4885C18.2979 20.0998 18.0618 19.6628 17.9088 19.1955C17.4416 19.1231 16.9926 18.9078 16.6334 18.5486C15.7337 17.649 15.7337 16.185 16.6334 15.2854C17.1666 14.7522 17.8979 14.5351 18.5925 14.6338C18.4938 13.9392 18.7108 13.2079 19.244 12.6748C20.1437 11.7751 21.6076 11.7751 22.5073 12.6748C22.7435 12.9109 22.917 13.1861 23.0292 13.4796C23.9333 12.7577 25.256 12.8128 26.0969 13.6538C26.9381 14.495 26.9926 15.8177 26.2711 16.7215ZM17.2861 17.896C17.4127 18.0226 17.558 18.1191 17.7131 18.1863C17.6482 17.2368 17.9005 16.3131 18.431 15.5435C18.0036 15.4924 17.5854 15.6388 17.2861 15.9381C16.7463 16.4779 16.7463 17.3562 17.2861 17.896ZM13.7103 26.6932C13.5303 26.8731 13.2376 26.8731 13.0576 26.6932C12.8776 26.5132 12.8776 26.2204 13.0576 26.0405L15.3747 23.7234C15.4587 23.8504 15.5565 23.9708 15.6682 24.0826C15.7791 24.1934 15.8994 24.2915 16.0271 24.3763L13.7103 26.6932ZM16.3208 23.4299H16.3209C16.7551 23.8642 17.3933 23.942 17.897 23.7008L16.0504 21.8542C15.8053 22.3687 15.8954 23.0044 16.3208 23.4299ZM23.128 14.9263C23.5011 15.0859 23.8439 15.3166 24.1391 15.6118C24.4385 15.9112 24.6667 16.2554 24.8237 16.623C24.7082 16.6537 24.588 16.6699 24.4654 16.6699C24.0956 16.6699 23.7479 16.5259 23.4864 16.2644C23.2248 16.0029 23.0809 15.6553 23.0809 15.2854C23.0809 15.1624 23.0971 15.042 23.128 14.9263ZM21.8547 13.3274C21.3149 12.7876 20.4366 12.7876 19.8968 13.3274C19.5847 13.6395 19.4534 14.0647 19.5022 14.4723C20.2454 13.9599 21.1638 13.6873 22.145 13.7544C22.0778 13.5993 21.9813 13.454 21.8547 13.3274ZM22.2066 14.6863C22.1444 14.9058 22.0272 15.1129 21.8548 15.2854C21.3227 15.8174 20.4622 15.8247 19.9207 15.3081C20.5804 14.8136 21.393 14.599 22.2066 14.6863ZM19.2441 17.896C19.776 17.364 19.7834 16.5037 19.267 15.9621C18.766 16.6316 18.5587 17.4527 18.645 18.2478C18.8646 18.1855 19.0716 18.0685 19.2441 17.896ZM21.2021 19.8539C20.9081 20.1479 20.7108 20.5023 20.6089 20.8774C20.2251 20.7175 19.8728 20.4827 19.5704 20.1803C19.2635 19.8733 19.0315 19.5194 18.8742 19.1415C19.249 19.0396 19.603 18.8424 19.8968 18.5486C20.4299 18.0154 20.6471 17.2842 20.5482 16.5895C20.6568 16.605 20.7663 16.6128 20.8757 16.6128C21.3841 16.6128 21.8922 16.4458 22.3107 16.1129C22.425 16.4109 22.6012 16.6845 22.8337 16.917C23.0661 17.1495 23.3398 17.3256 23.6378 17.4399C23.2331 17.9486 23.074 18.5896 23.1611 19.2024C22.4666 19.1036 21.7352 19.3208 21.2021 19.8539ZM23.7888 20.4839C23.2439 19.9641 22.384 19.9774 21.8547 20.5066C21.6823 20.6791 21.5651 20.8862 21.5029 21.1057C21.6189 21.1182 21.7363 21.1247 21.8547 21.1247C22.5622 21.1247 23.2342 20.8997 23.7888 20.4839ZM23.8127 22.4646C23.2729 23.0044 22.3945 23.0043 21.8548 22.4646C21.7282 22.338 21.6317 22.1927 21.5645 22.0376C21.6606 22.0442 21.7574 22.0477 21.8548 22.0477C22.7079 22.0477 23.521 21.7929 24.2073 21.3197C24.256 21.7273 24.1248 22.1525 23.8127 22.4646ZM24.4654 17.896C23.9334 18.4279 23.9261 19.2883 24.4425 19.8299C24.9435 19.1604 25.1508 18.3393 25.0644 17.5442C24.8449 17.6065 24.6378 17.7235 24.4654 17.896ZM24.7917 14.9591C24.4581 14.6255 24.0773 14.356 23.6644 14.1562C24.1987 13.7755 24.954 13.8161 25.4443 14.3064C25.9348 14.7969 25.9751 15.5522 25.5946 16.0863C25.3948 15.6734 25.1253 15.2926 24.7917 14.9591ZM25.2784 20.2485C25.686 20.2973 26.1112 20.1661 26.4233 19.854C26.9631 19.3141 26.9631 18.4358 26.4233 17.896C26.2967 17.7694 26.1514 17.6729 25.9964 17.6057C26.0613 18.5552 25.809 19.4789 25.2784 20.2485Z" fill="white"/>
</svg>
