<svg width="27" height="24" viewBox="0 0 27 24" fill="none" xmlns="http://www.w3.org/2000/svg">
<path fill-rule="evenodd" clip-rule="evenodd" d="M22.9037 10.2704H22.9335C24.6058 10.2704 26.0353 11.6219 26.0353 13.3214C26.0353 15.0207 24.6061 16.3725 22.9335 16.3725H22.8908C22.5102 19.8001 19.5961 22.4745 16.0687 22.4745H15.1747C14.8599 23.3622 14.012 24 13.0177 24C12.0233 24 11.1755 23.3622 10.8606 22.4745H9.96665C6.43922 22.4745 3.52514 19.8001 3.14448 16.3725H3.10186C1.4295 16.3725 0 15.0211 0 13.3214C0 11.6222 1.42915 10.2704 3.10186 10.2704H3.13166C3.31905 7.84864 4.39356 5.56852 6.15288 3.87912V2.62449C6.15288 0.970637 7.66588 -0.27316 9.291 0.0518745L13.0177 0.797186L16.7444 0.0518745C18.3661 -0.272448 19.8824 0.967179 19.8824 2.62449V3.87917C21.6417 5.56857 22.7162 7.84864 22.9037 10.2704ZM8.44114 13.3216C8.8624 13.3216 9.20389 12.9801 9.20389 12.5589C9.20389 12.1376 8.8624 11.7961 8.44114 11.7961C8.01988 11.7961 7.67839 12.1376 7.67839 12.5589C7.67839 12.9801 8.01988 13.3216 8.44114 13.3216ZM17.5942 13.3216C18.0154 13.3216 18.3569 12.9801 18.3569 12.5589C18.3569 12.1376 18.0154 11.7961 17.5942 11.7961C17.1729 11.7961 16.8314 12.1376 16.8314 12.5589C16.8314 12.9801 17.1729 13.3216 17.5942 13.3216ZM3.10186 14.847C2.24738 14.847 1.52551 14.1484 1.52551 13.3215C1.52551 12.4945 2.24738 11.796 3.10186 11.796V14.847ZM17.0435 1.54772L14.8819 1.9801C15.1509 2.39413 15.3059 2.88544 15.3059 3.40569C15.3059 3.92594 15.1509 4.41725 14.8819 4.83128L17.0435 5.26361C17.6825 5.39144 18.2994 4.93822 18.3617 4.29349C18.3525 4.21924 18.362 2.62448 18.362 2.62448C18.362 1.94487 17.7306 1.41033 17.0435 1.54772ZM13.0177 2.36091C13.466 2.50507 13.7804 2.92586 13.7804 3.40563C13.7804 3.8854 13.466 4.30614 13.0177 4.45035C12.5693 4.30619 12.2549 3.8854 12.2549 3.40563C12.2549 2.92591 12.5693 2.50512 13.0177 2.36091ZM8.9918 1.54774C8.31035 1.41141 7.67839 1.9339 7.67839 2.62449V4.07022C7.6911 4.1441 7.69293 4.21921 7.68383 4.2933C7.74581 4.93676 8.35144 5.39176 8.9918 5.26357L11.1534 4.83124C10.8844 4.41722 10.7294 3.9259 10.7294 3.40565C10.7294 2.88541 10.8844 2.39409 11.1534 1.98007L8.9918 1.54774ZM13.0177 22.4745C12.5971 22.4745 12.2549 22.1323 12.2549 21.7118C12.2549 21.2912 12.5971 20.949 13.0177 20.949C13.4382 20.949 13.7804 21.2912 13.7804 21.7118C13.7804 22.1323 13.4382 22.4745 13.0177 22.4745ZM13.0177 19.4235C13.761 19.4235 14.4225 19.78 14.8407 20.3308C15.1365 20.0686 15.3059 19.7498 15.3059 19.4235C15.3059 18.5966 14.2581 17.898 13.0177 17.898C11.7773 17.898 10.7294 18.5966 10.7294 19.4235C10.7294 19.7498 10.8988 20.0686 11.1946 20.3308C11.6129 19.78 12.2743 19.4235 13.0177 19.4235ZM21.408 15.6097C21.408 18.466 19.1535 20.8055 16.3305 20.9425C16.653 20.4895 16.8314 19.9684 16.8314 19.4235C16.8314 17.8467 15.2785 16.3725 13.0177 16.3725C10.7343 16.3725 9.20389 17.8628 9.20389 19.4235C9.20389 19.9684 9.38228 20.4894 9.70487 20.9425C6.88192 20.8055 4.62737 18.466 4.62737 15.6097V11.0332C4.62737 9.05069 5.33261 7.14167 6.59202 5.63976C7.18011 6.52201 8.2382 6.97 9.29095 6.75948L13.0177 6.01417L16.7444 6.75948C17.8014 6.97092 18.8579 6.51804 19.4433 5.63981C20.7027 7.14172 21.408 9.05069 21.408 11.0332V15.6097ZM24.5098 13.3215C24.5098 12.4945 23.7879 11.796 22.9335 11.796V14.847C23.7879 14.847 24.5098 14.1484 24.5098 13.3215Z" fill="#F794A4"/>
</svg>
