<svg width="32" height="32" viewBox="0 0 32 32" fill="none" xmlns="http://www.w3.org/2000/svg">
    <circle cx="16" cy="16" r="16" fill="#F794A4"/>
    <path fill-rule="evenodd" clip-rule="evenodd" d="M23.0048 14.7028H23.0269C24.2685 14.7028 25.3299 15.7164 25.3299 16.9911C25.3299 18.2655 24.2688 19.2793 23.0269 19.2793H22.9953C22.7126 21.8501 20.5491 23.8559 17.9302 23.8559H17.2664C17.0327 24.5217 16.4032 25 15.6649 25C14.9267 25 14.2972 24.5217 14.0634 23.8559H13.3997C10.7808 23.8559 8.61723 21.8501 8.33461 19.2793H8.30297C7.06133 19.2793 6 18.2658 6 16.9911C6 15.7167 7.06107 14.7028 8.30297 14.7028H8.3251C8.46422 12.8865 9.26199 11.1764 10.5682 9.90934V8.96837C10.5682 7.72798 11.6915 6.79513 12.8981 7.03891L15.6649 7.59789L18.4318 7.03891C19.6359 6.79566 20.7617 7.72538 20.7617 8.96837V9.90938C22.0678 11.1764 22.8656 12.8865 23.0048 14.7028ZM12.2671 16.9912C12.5799 16.9912 12.8334 16.7351 12.8334 16.4191C12.8334 16.1032 12.5799 15.8471 12.2671 15.8471C11.9543 15.8471 11.7008 16.1032 11.7008 16.4191C11.7008 16.7351 11.9543 16.9912 12.2671 16.9912ZM19.0628 16.9912C19.3755 16.9912 19.6291 16.7351 19.6291 16.4191C19.6291 16.1032 19.3755 15.8471 19.0628 15.8471C18.75 15.8471 18.4965 16.1032 18.4965 16.4191C18.4965 16.7351 18.75 16.9912 19.0628 16.9912ZM8.30297 18.1352C7.66856 18.1352 7.13261 17.6113 7.13261 16.9911C7.13261 16.3709 7.66856 15.847 8.30297 15.847V18.1352ZM18.6539 8.1608L17.049 8.48509C17.2487 8.7956 17.3638 9.16409 17.3638 9.55428C17.3638 9.94446 17.2487 10.3129 17.049 10.6235L18.6539 10.9477C19.1283 11.0436 19.5864 10.7037 19.6326 10.2201C19.6258 10.1644 19.6328 8.96837 19.6328 8.96837C19.6328 8.45866 19.1641 8.05775 18.6539 8.1608ZM15.6649 8.7707C15.9978 8.87882 16.2312 9.19441 16.2312 9.55424C16.2312 9.91407 15.9978 10.2296 15.6649 10.3378C15.3321 10.2297 15.0986 9.91407 15.0986 9.55424C15.0986 9.19445 15.3321 8.87886 15.6649 8.7707ZM12.6759 8.1608C12.17 8.05855 11.7008 8.45042 11.7008 8.96837V10.0527C11.7102 10.1081 11.7116 10.1644 11.7048 10.22C11.7509 10.7026 12.2005 11.0438 12.6759 10.9477L14.2808 10.6234C14.0811 10.3129 13.966 9.94443 13.966 9.55424C13.966 9.16405 14.0811 8.79557 14.2808 8.48505L12.6759 8.1608ZM15.6649 23.8559C15.3527 23.8559 15.0986 23.5992 15.0986 23.2838C15.0986 22.9684 15.3527 22.7117 15.6649 22.7117C15.9772 22.7117 16.2312 22.9684 16.2312 23.2838C16.2312 23.5992 15.9772 23.8559 15.6649 23.8559ZM15.6649 21.5676C16.2168 21.5676 16.7079 21.835 17.0184 22.2481C17.2381 22.0515 17.3638 21.8123 17.3638 21.5676C17.3638 20.9474 16.5859 20.4235 15.6649 20.4235C14.744 20.4235 13.966 20.9474 13.966 21.5676C13.966 21.8123 14.0918 22.0515 14.3114 22.2481C14.622 21.835 15.113 21.5676 15.6649 21.5676ZM21.8943 18.7073C21.8943 20.8495 20.2204 22.6042 18.1245 22.7069C18.364 22.3671 18.4965 21.9763 18.4965 21.5676C18.4965 20.385 17.3435 19.2793 15.6649 19.2793C13.9697 19.2793 12.8334 20.3971 12.8334 21.5676C12.8334 21.9763 12.9658 22.3671 13.2054 22.7069C11.1095 22.6042 9.43558 20.8495 9.43558 18.7073V15.2749C9.43558 13.788 9.95919 12.3563 10.8942 11.2298C11.3309 11.8915 12.1164 12.2275 12.898 12.0696L15.6649 11.5106L18.4318 12.0696C19.2166 12.2282 20.001 11.8885 20.4356 11.2299C21.3707 12.3563 21.8943 13.788 21.8943 15.2749V18.7073ZM24.1973 16.9911C24.1973 16.3709 23.6613 15.847 23.0269 15.847V18.1352C23.6613 18.1352 24.1973 17.6113 24.1973 16.9911Z" fill="white"/>
</svg>
