<svg width="186" height="221" viewBox="0 0 186 221" fill="none" xmlns="http://www.w3.org/2000/svg">
<g clip-path="url(#clip0)">
<path d="M156.26 57.3561C172.969 72.4707 179.133 101.934 172.79 127.991C166.402 154.048 147.545 176.704 121.768 191.808C95.9902 206.876 63.3388 214.457 41.5335 202.618C19.7283 190.778 8.8797 159.607 3.38298 129.023C-2.0671 98.4365 -2.15548 68.4783 12.3633 53.8565C26.8822 39.284 55.9738 40.0012 84.1546 40.7184C112.345 41.4799 139.596 42.2439 156.26 57.3561Z" fill="#F2F2F2"/>
<path d="M142.606 211.532H137.185V215.164H142.606V211.532Z" fill="#E49D75"/>
<path d="M169.344 204.818L165.386 208.026L168.219 211.546L172.176 208.338L169.344 204.818Z" fill="#E49D75"/>
<path d="M146.212 63.1821H145.964C144.848 63.1821 143.943 64.0902 143.943 65.2104V66.2529C143.943 67.3731 144.848 68.2811 145.964 68.2811H146.212C147.328 68.2811 148.232 67.3731 148.232 66.2529V65.2104C148.232 64.0902 147.328 63.1821 146.212 63.1821Z" fill="#E49D75"/>
<path d="M147.889 139.84C148.625 141.535 154.272 175.56 155.101 178.779C155.931 181.997 169.205 202.98 170.109 204.234C170.386 206.048 166.286 209.116 164.342 209.116C162.398 207.574 139.689 174.542 139.144 173.076C138.599 171.61 136.77 136.518 147.889 139.84Z" fill="#F794A4"/>
<path d="M124.181 134.203C123.923 135.608 127.76 167.72 128.237 172.033C128.713 176.346 136.065 211.09 136.716 211.958C137.367 212.825 142.316 212.638 143.17 212.204C144.025 211.77 141.501 175.976 141.501 173.381C141.501 170.786 148.129 146.851 147.277 139.918C146.425 132.986 124.181 134.203 124.181 134.203Z" fill="#F794A4"/>
<path d="M142.996 95.2773H137.813V104.332H142.996V95.2773Z" fill="#E49D75"/>
<path d="M110.995 33.9727H28.8192C25.7793 33.9727 23.3151 36.4464 23.3151 39.498V121.992C23.3151 125.043 25.7793 127.517 28.8192 127.517H110.995C114.035 127.517 116.499 125.043 116.499 121.992V39.498C116.499 36.4464 114.035 33.9727 110.995 33.9727Z" fill="#E0E0E0"/>
<path d="M75.7316 76.5962C77.0102 75.4184 77.9046 73.8804 78.2977 72.1837C78.6909 70.487 78.5644 68.7107 77.9349 67.0873C77.3054 65.464 76.2021 64.0693 74.7697 63.0861C73.3373 62.1028 71.6425 61.5767 69.9072 61.5767C68.1719 61.5767 66.477 62.1028 65.0446 63.0861C63.6122 64.0693 62.5089 65.464 61.8794 67.0873C61.2499 68.7107 61.1234 70.487 61.5166 72.1837C61.9097 73.8804 62.8041 75.4184 64.0827 76.5962L57.4468 103.609H82.3601L75.7316 76.5962Z" fill="#A4A4A4"/>
<path d="M39.9918 33.973C40.0633 26.0554 43.2465 18.4865 48.849 12.9131C54.4514 7.33976 62.0197 4.21289 69.9071 4.21289C77.7945 4.21289 85.3628 7.33976 90.9653 12.9131C96.5677 18.4865 99.751 26.0554 99.8224 33.973" stroke="#E0E0E0" stroke-width="32" stroke-linecap="round" stroke-linejoin="round"/>
<path d="M139.736 96.7659C143.668 96.7659 146.855 92.4627 146.855 87.1545C146.855 81.8462 143.668 77.543 139.736 77.543C135.804 77.543 132.616 81.8462 132.616 87.1545C132.616 92.4627 135.804 96.7659 139.736 96.7659Z" fill="#E49D75"/>
<path d="M138.766 102.466C130.134 102.466 122.44 126.504 123.918 134.482C124.355 136.838 145.011 141.592 148.169 140.927C149.29 139.394 153.869 102.466 138.766 102.466Z" fill="#FFD98E"/>
<path d="M136.552 115.855C140.416 113.041 134.239 99.4024 132.795 99.1683C130.137 98.737 123.525 103.851 123.734 106C123.844 107.133 132.616 118.721 136.552 115.855Z" fill="#FFE4AD"/>
<path d="M124.959 104.987C123.918 103.732 121.316 97.5934 121.031 96.1369C120.746 94.6804 120.049 72.7884 120.049 71.4921C120.049 70.1958 118.331 66.9254 118.331 64.9736C118.331 63.0217 120.309 60.3748 121.316 60.3403C122.391 61.1068 123.884 65.602 123.953 66.748C124.328 64.2835 126.106 63.7167 126.592 63.7167C127.078 63.7167 127.014 67.5243 125.001 70.0874C125.072 71.9702 127.456 90.619 127.841 91.6984C128.227 92.7778 132.616 99.8534 132.606 100.479C132.597 101.105 124.959 104.987 124.959 104.987Z" fill="#E49D75"/>
<path d="M178.041 70.1424L90.935 58.1953L90.595 60.6933L177.701 72.6404L178.041 70.1424Z" fill="#A4A4A4"/>
<path d="M95.9213 61.423L90.5944 60.6924L89.6097 67.9274L94.9366 68.6581L95.9213 61.423Z" fill="#A4A4A4"/>
<path d="M101.052 62.1279L98.1866 61.7349L97.2019 68.9699L100.067 69.3629L101.052 62.1279Z" fill="#A4A4A4"/>
<path d="M148.463 82.3139C148.259 81.1457 148.075 72.6802 148.389 71.4849C148.704 70.2897 149.553 69.4172 149.934 67.6329C150.064 67.0193 149.858 64.8949 149.443 64.8062C148.549 64.614 148.498 65.6195 148.38 66.3588C147.923 68.88 146.993 68.4191 146.563 68.36C146.133 68.3008 144.658 68.0445 144.174 68.0322C143.691 68.0199 144.923 69.018 144.547 70.6125C144.253 71.8669 142.868 80.224 142.583 81.5918C143.617 81.6337 148.463 82.3139 148.463 82.3139Z" fill="#E49D75"/>
<path d="M105.942 62.7963L103.077 62.4033L102.092 69.6383L104.957 70.0313L105.942 62.7963Z" fill="#A4A4A4"/>
<path d="M105.94 62.7981L90.5944 60.6934L90.2454 63.2572L105.591 65.362L105.94 62.7981Z" fill="#A4A4A4"/>
<path d="M180.366 65.0823C179.089 64.9078 177.79 65.117 176.632 65.6836C175.474 66.2501 174.509 67.1486 173.86 68.2654C173.21 69.3822 172.905 70.6672 172.983 71.958C173.061 73.2489 173.518 74.4876 174.297 75.5177C175.075 76.5478 176.141 77.3229 177.359 77.7453C178.576 78.1676 179.891 78.2182 181.137 77.8905C182.384 77.5629 183.505 76.8717 184.36 75.9044C185.215 74.9371 185.765 73.7371 185.941 72.456C186.058 71.6043 186.006 70.7377 185.789 69.906C185.572 69.0742 185.194 68.2936 184.676 67.6087C184.159 66.9239 183.511 66.3482 182.772 65.9147C182.032 65.4812 181.214 65.1983 180.366 65.0823ZM183.879 72.1652C183.76 73.038 183.386 73.8557 182.804 74.5151C182.222 75.1744 181.459 75.6457 180.61 75.8694C179.761 76.0931 178.866 76.0591 178.036 75.7717C177.207 75.4844 176.481 74.9565 175.95 74.2549C175.42 73.5534 175.108 72.7096 175.055 71.8304C175.003 70.9511 175.211 70.0759 175.653 69.3153C176.096 68.5548 176.753 67.9432 177.542 67.5577C178.331 67.1723 179.217 67.0304 180.086 67.15C181.251 67.3103 182.306 67.9287 183.017 68.8692C183.728 69.8097 184.038 70.9953 183.879 72.1652Z" fill="#A4A4A4"/>
<path d="M125.028 70.0676C124.704 68.7935 124.073 67.6796 123.97 66.7209V66.7504C123.901 65.602 122.408 61.1068 121.333 60.3428C120.327 60.3773 118.348 63.0241 118.348 64.976C118.348 66.4079 119.281 68.5495 119.777 70.0997H125.018L125.028 70.0676Z" fill="#E49D75"/>
<path d="M133.321 81.1333C133.321 84.4579 135.658 86.5084 139.363 87.6519C139.363 92.2013 140.062 92.401 140.062 95.171C140.062 101.14 139.048 98.1555 139.048 108.462C139.048 114.677 141.641 118.059 146.413 118.059C152.185 118.059 155.497 111.93 155.497 108.627C155.497 104.437 151.367 97.1574 151.078 91.112C150.678 82.9792 148.159 76.1748 141.842 76.1748C136.446 76.1748 133.321 78.1908 133.321 81.1333Z" fill="black"/>
<path d="M139.728 90.3529C140.786 90.3529 141.643 89.4923 141.643 88.4306C141.643 87.3689 140.786 86.5083 139.728 86.5083C138.671 86.5083 137.813 87.3689 137.813 88.4306C137.813 89.4923 138.671 90.3529 139.728 90.3529Z" fill="#E49D75"/>
<path fill-rule="evenodd" clip-rule="evenodd" d="M172.166 207.63L175.235 211.835L168.815 220.953L162.756 220.993L162.835 217.91L165.268 216.83L167.43 211.473L172.166 207.63Z" fill="#171D33"/>
<path d="M142.969 214.861V221H124.994V218.282L136.854 214.861H142.969Z" fill="#171D33"/>
</g>
<defs>
<clipPath id="clip0">
<rect width="186" height="221" fill="white"/>
</clipPath>
</defs>
</svg>
