<svg width="20" height="20" viewBox="0 0 20 20" fill="none" xmlns="http://www.w3.org/2000/svg">
<path fill-rule="evenodd" clip-rule="evenodd" d="M10.0232 0.668945C10.3999 0.230234 10.8811 0 11.4281 0C12.5334 0 13.3993 0.950469 13.3993 2.16383C13.3993 3.44036 12.4148 4.29883 11.2395 5.32368L11.2344 5.32812C11.1957 5.36191 11.1567 5.39587 11.1176 5.43004L11.116 5.43145L11.1157 5.43173C10.8851 5.63303 10.6467 5.84123 10.3941 6.06777C10.2877 6.1632 10.1555 6.21094 10.0232 6.21094C9.89097 6.21094 9.75876 6.1632 9.65233 6.06777C9.39974 5.84129 9.16138 5.63311 8.93089 5.43179L8.92897 5.43012C7.60431 4.27332 6.64721 3.4375 6.64721 2.16383C6.64721 0.950469 7.51306 0 8.61837 0C9.16535 0 9.64656 0.230234 10.0232 0.668945ZM10.3648 4.55393L10.387 4.53449C11.5526 3.51672 12.2666 2.89148 12.2666 2.16383C12.2666 1.6709 11.9786 1.17188 11.4281 1.17188C10.82 1.17188 10.5849 1.9473 10.5686 2.00375C10.5027 2.26051 10.2801 2.43938 10.0232 2.43938C9.76635 2.43938 9.54372 2.26051 9.47787 2.00375C9.46156 1.9473 9.22643 1.17188 8.61833 1.17188C8.06781 1.17188 7.77979 1.6709 7.77979 2.16383C7.77979 2.86211 8.39 3.42602 9.65943 4.53461C9.77824 4.63832 9.89909 4.74387 10.0232 4.85305C10.1396 4.75064 10.2531 4.65146 10.3648 4.55393ZM19.1219 16.4844C18.8091 16.4844 18.5556 16.7467 18.5556 17.0703V17.6562H17.423V17.0703C17.423 16.7467 17.1694 16.4844 16.8566 16.4844C16.5439 16.4844 16.2903 16.7467 16.2903 17.0703V17.6562H15.12V15.1724C15.7894 15.4176 16.5517 15.211 17.0126 14.6137C17.6007 13.8539 17.479 12.7477 16.7492 12.1446L11.0842 7.41644C10.4595 6.89969 9.58691 6.89969 8.96035 7.41805L3.29944 12.1428C2.56566 12.7491 2.44658 13.8548 3.03362 14.6134C3.50943 15.229 4.28289 15.4099 4.92648 15.1739V17.6562H3.75611V17.0703C3.75611 16.7467 3.50256 16.4844 3.1898 16.4844C2.87705 16.4844 2.6235 16.7467 2.6235 17.0703V17.6562H1.49089V17.0703C1.49089 16.7467 1.23733 16.4844 0.924582 16.4844C0.61183 16.4844 0.358276 16.7467 0.358276 17.0703V19.4141C0.358276 19.7377 0.61183 20 0.924582 20C1.23733 20 1.49089 19.7377 1.49089 19.4141V18.8281H2.6235V19.4141C2.6235 19.7377 2.87705 20 3.1898 20C3.50256 20 3.75611 19.7377 3.75611 19.4141V18.8281H4.92648V19.4141C4.92648 19.7377 5.18003 20 5.49278 20H14.5537C14.8664 20 15.12 19.7377 15.12 19.4141V18.8281H16.2903V19.4141C16.2903 19.7377 16.5439 20 16.8566 20C17.1694 20 17.423 19.7377 17.423 19.4141V18.8281H18.5556V19.4141C18.5556 19.7377 18.8091 20 19.1219 20C19.4346 20 19.6882 19.7377 19.6882 19.4141V17.0703C19.6882 16.7467 19.4346 16.4844 19.1219 16.4844ZM13.9874 18.8281H11.7221V15.8984C11.7221 15.5748 11.4686 15.3125 11.1558 15.3125H8.89061C8.57786 15.3125 8.32431 15.5748 8.32431 15.8984V18.8281H6.05909V14.3602L10.0232 11.0794L13.9874 14.3603V18.8281ZM9.66947 9.87148C9.87625 9.70031 10.1701 9.70031 10.3769 9.87148L15.3327 13.973C15.5773 14.1757 15.9334 14.1341 16.128 13.8819C16.3247 13.6277 16.284 13.26 16.0402 13.0585L10.375 8.33016C10.1684 8.15937 9.87757 8.15969 9.66951 8.3318L4.00838 13.0567C3.75585 13.2655 3.7267 13.6342 3.91792 13.8812C4.11341 14.1341 4.46905 14.1759 4.71332 13.9734L9.66947 9.87148ZM9.45692 18.8281H10.5895V16.4844H9.45692V18.8281Z" fill="#A6AAB4"/>
</svg>
