<svg width="24" height="25" viewBox="0 0 24 25" fill="none" xmlns="http://www.w3.org/2000/svg">
<path fill-rule="evenodd" clip-rule="evenodd" d="M12.7414 0.440168L16.6294 5.02801C16.8867 5.33041 16.8492 5.78545 16.5449 6.04273C16.4095 6.15697 16.2454 6.21265 16.0803 6.21265C15.8758 6.21265 15.6732 6.12721 15.5302 5.95825L12.7203 2.64145V15.6005C12.7203 15.9979 12.3977 16.3205 12.0003 16.3205C11.6028 16.3205 11.2803 15.9979 11.2803 15.6005V2.65009L8.46937 5.96689C8.32729 6.13393 8.12377 6.22033 7.92025 6.22033C7.75513 6.22033 7.59001 6.16465 7.45369 6.04945C7.15129 5.79313 7.11385 5.33809 7.37017 5.03473L11.2591 0.446888C11.2627 0.442646 11.2679 0.43611 11.2745 0.427682C11.3489 0.333119 11.6107 0.000488281 12.0003 0.000488281C12.3957 0.000488281 12.6489 0.322806 12.7251 0.419826C12.732 0.428571 12.7374 0.435485 12.7414 0.440168ZM6.47997 24.9574H17.52C18.9763 24.9574 20.16 23.7737 20.16 22.3174V11.2774C20.16 9.8211 18.9763 8.63742 17.52 8.63742H15.5836V10.0774H17.52C18.1814 10.0774 18.72 10.616 18.72 11.2774V22.3174C18.72 22.9789 18.1814 23.5174 17.52 23.5174H6.47997C5.81853 23.5174 5.27997 22.9789 5.27997 22.3174V11.2774C5.27997 10.616 5.81853 10.0774 6.47997 10.0774H8.45661V8.63742H6.47997C5.02365 8.63742 3.83997 9.8211 3.83997 11.2774V22.3174C3.83997 23.7737 5.02365 24.9574 6.47997 24.9574Z" fill="#F794A4"/>
</svg>
