<svg width="28" height="28" viewBox="0 0 28 28" fill="none" xmlns="http://www.w3.org/2000/svg">
<path fill-rule="evenodd" clip-rule="evenodd" d="M20.9895 9.1928C21.2736 9.4769 21.2736 9.93751 20.9895 10.2216L12.9873 18.2239C12.7032 18.508 12.2426 18.508 11.9585 18.2239L8.3211 14.5865C8.037 14.3024 8.037 13.8418 8.3211 13.5577C8.6052 13.2736 9.06581 13.2736 9.34991 13.5577L12.4729 16.6807L19.9607 9.1928C20.2448 8.9087 20.7054 8.9087 20.9895 9.1928Z" fill="#10C971"/>
<path fill-rule="evenodd" clip-rule="evenodd" d="M14.2916 26.0754C21.1218 26.0754 26.6587 20.5385 26.6587 13.7083C26.6587 6.87816 21.1218 1.34122 14.2916 1.34122C7.46141 1.34122 1.92447 6.87816 1.92447 13.7083C1.92447 20.5385 7.46141 26.0754 14.2916 26.0754ZM14.2916 27.1667C21.7244 27.1667 27.7499 21.1412 27.7499 13.7083C27.7499 6.2755 21.7244 0.25 14.2916 0.25C6.85875 0.25 0.833252 6.2755 0.833252 13.7083C0.833252 21.1412 6.85875 27.1667 14.2916 27.1667Z" fill="#10C971"/>
</svg>
