<svg width="34" height="34" viewBox="0 0 34 34" fill="none" xmlns="http://www.w3.org/2000/svg">
<path fill-rule="evenodd" clip-rule="evenodd" d="M22.9895 13.1928C23.2736 13.4769 23.2736 13.9375 22.9895 14.2216L14.9873 22.2239C14.7032 22.508 14.2426 22.508 13.9585 22.2239L10.3211 18.5865C10.037 18.3024 10.037 17.8418 10.3211 17.5577C10.6052 17.2736 11.0658 17.2736 11.3499 17.5577L14.4729 20.6807L21.9607 13.1928C22.2448 12.9087 22.7054 12.9087 22.9895 13.1928Z" fill="#D6D9E4"/>
<path fill-rule="evenodd" clip-rule="evenodd" d="M16.2916 30.0754C23.1218 30.0754 28.6587 24.5385 28.6587 17.7083C28.6587 10.8782 23.1218 5.34122 16.2916 5.34122C9.46141 5.34122 3.92447 10.8782 3.92447 17.7083C3.92447 24.5385 9.46141 30.0754 16.2916 30.0754ZM16.2916 31.1667C23.7244 31.1667 29.7499 25.1412 29.7499 17.7083C29.7499 10.2755 23.7244 4.25 16.2916 4.25C8.85875 4.25 2.83325 10.2755 2.83325 17.7083C2.83325 25.1412 8.85875 31.1667 16.2916 31.1667Z" fill="#D6D9E4"/>
</svg>
