<svg width="40" height="40" viewBox="0 0 40 40" fill="none" xmlns="http://www.w3.org/2000/svg">
<circle cx="20" cy="20" r="20" fill="#F794A4"/>
<path fill-rule="evenodd" clip-rule="evenodd" d="M17.3038 13H21.6962C21.9974 13 22.3927 13.2066 22.5781 13.4614L23.7851 15.3374C23.903 15.52 24.099 15.6309 24.3083 15.6309H26.904C27.5097 15.6309 27.9995 16.1517 27.9995 16.7974V25.2735C27.9995 25.9181 27.5097 26.4406 26.904 26.4406H12.096C11.4903 26.4406 11 25.9192 11 25.2735V16.7974C11 16.1528 11.4903 15.6309 12.096 15.6309H14.7023C14.9047 15.6309 15.0943 15.5245 15.2091 15.3475L16.4214 13.4614C16.6073 13.2072 17.0042 13 17.3038 13ZM23.6129 17.0914C23.6129 17.4139 23.8584 17.6754 24.1612 17.6754C24.4645 17.6754 24.7094 17.4139 24.7094 17.0914C24.7094 16.7688 24.4645 16.5067 24.1612 16.5067C23.8584 16.5067 23.6129 16.7688 23.6129 17.0914ZM15.6612 20.8893C15.6612 23.1483 17.3798 24.9795 19.5 24.9795C21.6202 24.9795 23.3383 23.1483 23.3383 20.8893C23.3383 18.6297 21.6202 16.799 19.5 16.799C17.3798 16.799 15.6612 18.6297 15.6612 20.8893ZM12.6448 13.5846H13.7423C14.0451 13.5846 14.29 13.8445 14.29 14.1693V14.7534H12.0965V14.1693C12.0965 13.8462 12.3404 13.5846 12.6448 13.5846ZM16.4841 20.8893C16.4841 19.1135 17.834 17.6754 19.5 17.6754C21.166 17.6754 22.5159 19.1135 22.5159 20.8893C22.5159 22.6645 21.166 24.1031 19.5 24.1031C17.834 24.1031 16.4841 22.6645 16.4841 20.8893Z" fill="white"/>
</svg>
