<svg width="17" height="14" viewBox="0 0 17 14" fill="none" xmlns="http://www.w3.org/2000/svg">
    <path fill-rule="evenodd" clip-rule="evenodd" d="M6.30381 0H10.6962C10.9974 0 11.3927 0.20664 11.5781 0.46144L12.7851 2.33744C12.903 2.52 13.099 2.63088 13.3083 2.63088H15.904C16.5097 2.63088 16.9995 3.15168 16.9995 3.79736V12.2735C16.9995 12.9181 16.5097 13.4406 15.904 13.4406H1.09597C0.490344 13.4406 0 12.9192 0 12.2735V3.79736C0 3.1528 0.490344 2.63088 1.09597 2.63088H3.70228C3.90469 2.63088 4.09434 2.52448 4.20909 2.34752L5.42141 0.46144C5.60734 0.2072 6.00419 0 6.30381 0ZM12.6129 4.09136C12.6129 4.41392 12.8584 4.67544 13.1612 4.67544C13.4645 4.67544 13.7094 4.41392 13.7094 4.09136C13.7094 3.7688 13.4645 3.50672 13.1612 3.50672C12.8584 3.50672 12.6129 3.7688 12.6129 4.09136ZM4.66118 7.88927C4.66118 10.1483 6.37978 11.9795 8.49999 11.9795C10.6202 11.9795 12.3383 10.1483 12.3383 7.88927C12.3383 5.62967 10.6202 3.79903 8.49999 3.79903C6.37978 3.79903 4.66118 5.62967 4.66118 7.88927ZM1.64476 0.584649H2.74232C3.04514 0.584649 3.29004 0.844489 3.29004 1.16929V1.75337H1.09651V1.16929C1.09651 0.846169 1.34035 0.584649 1.64476 0.584649ZM5.4841 7.88928C5.4841 6.11352 6.83401 4.67544 8.50001 4.67544C10.166 4.67544 11.5159 6.11352 11.5159 7.88928C11.5159 9.66448 10.166 11.1031 8.50001 11.1031C6.83401 11.1031 5.4841 9.66448 5.4841 7.88928Z" fill="#F794A4"/>
</svg>
