<svg width="32" height="32" viewBox="0 0 32 32" fill="none" xmlns="http://www.w3.org/2000/svg">
<circle cx="16" cy="16" r="16" fill="#F794A4"/>
<path d="M15.8764 11.8208C15.3324 11.8208 14.8904 11.6712 14.5504 11.372C14.224 11.0728 14.0608 10.6716 14.0608 10.1684C14.0608 9.6652 14.224 9.264 14.5504 8.9648C14.8904 8.6656 15.3324 8.516 15.8764 8.516C16.4204 8.516 16.8556 8.6656 17.182 8.9648C17.522 9.264 17.692 9.6652 17.692 10.1684C17.692 10.6716 17.522 11.0728 17.182 11.372C16.8556 11.6712 16.4204 11.8208 15.8764 11.8208ZM14.428 12.8H17.3248V23H14.428V12.8Z" fill="white"/>
</svg>
