<svg width="32" height="32" viewBox="0 0 32 32" fill="none" xmlns="http://www.w3.org/2000/svg">
    <circle cx="16" cy="16" r="16" fill="#F794A4"/>
    <path d="M16.397 12.684C15.9437 12.684 15.5753 12.5593 15.292 12.31C15.02 12.0607 14.884 11.7263 14.884 11.307C14.884 10.8877 15.02 10.5533 15.292 10.304C15.5753 10.0547 15.9437 9.93 16.397 9.93C16.8503 9.93 17.213 10.0547 17.485 10.304C17.7683 10.5533 17.91 10.8877 17.91 11.307C17.91 11.7263 17.7683 12.0607 17.485 12.31C17.213 12.5593 16.8503 12.684 16.397 12.684ZM15.19 13.5H17.604V22H15.19V13.5Z" fill="white"/>
</svg>
