<svg width="236" height="308" viewBox="0 0 236 308" fill="none" xmlns="http://www.w3.org/2000/svg">
<g clip-path="url(#clip0)">
<path opacity="0.18" d="M11.4337 285.534C12.4872 286.794 13.6127 287.992 14.8045 289.122C27.0202 300.786 44.8539 304.016 61.6539 305.739C94.488 309.092 127.6 308.649 160.333 304.42H158.202C160.288 304.16 162.373 303.765 164.431 303.326C178.229 300.435 191.29 294.762 202.813 286.655C208.183 282.831 213.09 278.399 217.438 273.448C231.011 257.953 238.445 236.671 235.29 216.304C232.665 199.167 223.119 183.86 218.885 167.055C210.301 132.906 224.279 95.6535 213.492 62.0792C210.948 54.1477 207.083 46.7008 203.236 39.2986C200.827 34.6779 198.364 29.9675 194.607 26.3427C190.391 22.2782 184.854 19.8916 179.461 17.5858C158.463 8.61348 136.674 -0.457481 113.843 -0.0178401C101.213 0.215439 88.764 3.41854 77.0696 8.17384C68.6292 11.6102 60.4404 15.9259 53.5999 21.9552C38.319 35.4136 31.2898 56.0499 29.4471 76.3003C27.6044 96.5507 30.346 116.846 31.4426 137.114C32.0719 148.68 32.1348 160.442 29.0786 171.631C25.6269 184.273 18.373 195.47 12.4134 207.134C5.7258 220.206 0.512314 234.347 -0.0090332 249.016C-0.422516 262.062 3.19096 275.574 11.4337 285.534Z" fill="#F99D9D"/>
<path opacity="0.54" d="M11.4337 285.534C12.4873 286.794 13.6127 287.992 14.8045 289.123C26.0944 299.889 42.2022 303.478 57.8427 305.317C59.1191 305.47 60.3865 305.605 61.6539 305.739C94.488 309.092 127.6 308.649 160.333 304.42H158.202C160.288 304.16 162.373 303.765 164.431 303.326C165.222 303.155 166.013 302.976 166.795 302.787C179.732 299.773 191.963 294.288 202.813 286.637C179.973 279.28 144.746 274.561 105.24 274.561C67.8292 274.623 34.2742 278.84 11.4337 285.534Z" fill="#F99D9D"/>
<path opacity="0.54" d="M57.7708 304.689C57.7576 304.91 57.7576 305.132 57.7708 305.353C59.0472 305.506 60.3146 305.64 61.582 305.775C94.4161 309.128 127.528 308.685 160.261 304.456H158.13C160.216 304.196 162.301 303.801 164.36 303.361C165.151 303.191 165.942 303.011 166.724 302.823C163.892 293.797 140.656 286.771 112.378 286.771C82.2742 286.771 57.7708 294.793 57.7708 304.689Z" fill="#F99D9D"/>
<path d="M135.748 38.4998L143.587 29.3481C143.587 29.3481 141.429 20.5373 127.344 17.1189C124.567 16.4564 121.699 16.2653 118.859 16.5536C114.879 16.8921 110.973 17.8267 107.272 19.3261L107.389 29.8146C107.389 29.8146 133.043 31.2323 135.748 38.4998Z" fill="#F99D9D"/>
<path d="M135.748 38.4998L143.587 29.3481C143.587 29.3481 141.429 20.5373 127.344 17.1189C124.567 16.4564 121.699 16.2653 118.859 16.5536C114.879 16.8921 110.973 17.8267 107.272 19.3261L107.389 29.8146C107.389 29.8146 133.043 31.2323 135.748 38.4998Z" fill="url(#paint0_linear)"/>
<path d="M135.748 38.4998C138.013 36.831 142.616 37.4052 144.899 38.3204C146.545 38.9901 148.015 40.0287 149.194 41.3557C150.374 42.6828 151.233 44.2628 151.703 45.9737C152.111 47.5759 152.23 49.2378 152.054 50.8815C151.721 54.4705 150.157 58.167 147.209 60.3204C141.043 64.8065 137.24 60.6434 135.407 55.0357C134.247 51.8579 133.873 48.4473 134.319 45.0944C134.652 42.5643 133.492 40.5545 135.461 38.7421L135.748 38.4998Z" fill="#C47331"/>
<path d="M122.822 70.1453C113.375 70.1453 105.717 60.6088 105.717 48.8451C105.717 37.0813 113.375 27.5449 122.822 27.5449C132.27 27.5449 139.928 37.0813 139.928 48.8451C139.928 60.6088 132.27 70.1453 122.822 70.1453Z" fill="#C47331"/>
<path d="M104.935 44.5296C104.774 47.621 104.807 50.7195 105.034 53.8069C105.24 55.7109 104.999 57.6366 104.332 59.4319C103.664 61.2273 102.587 62.8431 101.187 64.1519C102.064 64.2556 102.951 64.2284 103.82 64.0711C104.256 63.9906 104.668 63.8133 105.026 63.5524C105.384 63.2915 105.678 62.9536 105.888 62.5638C105.473 63.2915 104.902 63.9178 104.215 64.3974C103.527 64.877 102.742 65.1977 101.915 65.3362C103.712 66.1168 108.486 67.7857 108.809 64.7441C108.926 63.5777 108.441 62.2229 108.351 61.0565C108.225 59.4684 108.198 57.8623 108.117 56.2742L107.506 43.4888" fill="#C47331"/>
<path d="M68.5571 107.596C68.5571 107.596 65.42 102.069 64.0627 101.243C62.8493 100.499 60.2965 98.1388 59.5684 98.6592C58.3099 99.5564 63.7571 104.41 58.8942 104.043C58.1302 103.98 54.229 104.043 52.3504 105.837C51.9782 106.186 51.6847 106.61 51.4894 107.08C51.2941 107.551 51.2014 108.058 51.2175 108.567C51.2337 109.076 51.3583 109.576 51.5831 110.034C51.8079 110.491 52.1277 110.896 52.5212 111.22C53.7976 112.118 58.1751 112.485 60.5391 112.414C62.9032 112.342 65.6717 112.683 67.2897 113.652" fill="#F6C8C9"/>
<path d="M102.058 84.124C102.058 84.124 99.8112 91.1673 99.5865 94.9715C99.3618 98.7757 97.582 114.782 96.9797 115.608C96.3775 116.433 67.6314 106.635 67.6314 106.635C67.6314 106.635 65.8966 109.076 67.2898 113.679C67.2898 113.679 88.6292 132.96 101.546 133.714C114.463 134.467 112.809 103.926 112.809 103.926" fill="#F6C8C9"/>
<path d="M89.5999 114.782C89.4872 115.033 89.4619 115.314 89.528 115.581C89.6108 115.762 89.7375 115.919 89.8966 116.039L94.8314 120.471C95.3812 121.068 96.0934 121.492 96.8808 121.691C97.3179 121.728 97.7576 121.661 98.1638 121.496C98.5701 121.331 98.9313 121.072 99.2179 120.74C99.7881 120.078 100.249 119.33 100.584 118.524C101.466 116.79 102.211 114.99 102.813 113.141C103.588 110.318 103.957 107.4 103.91 104.473C103.91 101.082 103.757 97.6993 103.524 94.3167C103.506 93.1826 103.319 92.0575 102.966 90.9791C102.695 90.1436 102.15 89.4232 101.42 88.9334C100.377 88.422 100.189 89.0321 99.6673 89.9293C98.5707 91.8225 97.582 93.7605 96.6651 95.7344C94.8754 99.65 93.2942 103.657 91.928 107.739C91.137 110.09 90.364 112.432 89.5999 114.782Z" fill="#F99D9D"/>
<path d="M89.7618 114.145C89.6513 114.393 89.6229 114.67 89.6809 114.935C89.7652 115.117 89.8952 115.275 90.0584 115.392L94.9933 119.834C95.5431 120.43 96.2553 120.855 97.0427 121.054C97.4795 121.088 97.9183 121.02 98.3241 120.855C98.7298 120.689 99.0913 120.432 99.3798 120.103C99.948 119.44 100.409 118.692 100.746 117.887C101.624 116.151 102.369 114.351 102.975 112.503C103.751 109.681 104.117 106.762 104.063 103.836C104.108 100.445 103.919 97.053 103.685 93.6705C103.668 92.5393 103.48 91.4172 103.128 90.3417C102.857 89.5063 102.312 88.7859 101.582 88.2961C100.539 87.7757 100.351 88.3948 99.7843 89.292C98.6876 91.1762 97.6989 93.1232 96.773 95.0971C94.9983 99.0045 93.4233 102.999 92.0539 107.066C91.2989 109.444 90.5258 111.794 89.7618 114.145Z" fill="url(#paint1_linear)"/>
<path d="M127.335 285.13L118.589 298.848C119.991 298.373 133.088 295.43 136.126 295.439C138.117 295.356 140.033 294.656 141.609 293.438L139.703 283.721L136.315 235.666L118.094 238.303L127.335 285.13Z" fill="#F6C8C9"/>
<path d="M92.2068 284.762L83.9821 297.117C85.4562 297 95.3529 294.82 98.2922 295.592C100.244 296.005 102.275 295.804 104.108 295.017L104.683 285.148L108.405 240.663L92.7371 233.046L92.2068 284.762Z" fill="#F6C8C9"/>
<path d="M129.501 63.0483L130.238 78.5165C129.425 79.6958 128.312 80.638 127.014 81.2466C125.715 81.8552 124.278 82.1082 122.85 81.9798C115.38 81.1454 115.659 78.9292 115.659 78.9292C115.659 78.9292 115.659 67.7588 115.353 65.2645" fill="#F6C8C9"/>
<path d="M127.721 68.0816L129.447 64.9683L115.398 66.5205C115.515 67.4715 115.587 69.6877 115.632 72.0743C117.814 72.7157 120.141 72.677 122.302 71.9636C124.462 71.2502 126.353 69.8959 127.721 68.0816Z" fill="#DCB5B0"/>
<path d="M84.1889 233.665C93.5911 246.038 119.605 244.118 134.041 242.808C136.486 242.583 140.027 242.808 142.319 241.91C147.757 239.775 144.809 237.263 143.874 231.915C141.969 220.951 143.946 209.727 144.477 198.718C144.683 194.187 142.616 177.472 141.196 167.252C140.53 162.47 140.009 159.105 139.928 159.061C136.468 157.203 127.757 163.798 123.874 163.627C122.211 163.547 106.014 161.322 98.9664 160.424C97.9666 162.788 96.8136 165.083 95.5147 167.297C95.3368 167.555 95.1776 167.824 95.0383 168.105C94.8675 169.962 94.6787 172.052 94.472 174.304C92.3057 198.036 84.1889 233.665 84.1889 233.665Z" fill="#F99D9D"/>
<path d="M84.1888 233.665C92.9528 245.194 116.144 244.306 130.93 243.077L134.032 242.807C136.476 242.583 140.018 242.807 142.31 241.91C147.748 239.775 144.8 237.263 143.865 231.915C141.96 220.951 143.937 209.727 144.467 198.718C144.674 194.187 142.607 177.471 141.187 167.252C140.521 162.47 140 159.105 139.919 159.06C138.832 158.468 137.223 158.728 135.425 159.338C131.47 160.684 126.544 163.744 123.883 163.627C122.22 163.546 106.023 161.321 98.9753 160.424C97.9802 162.785 96.8301 165.078 95.5326 167.288C95.3547 167.545 95.1955 167.815 95.0562 168.095C94.8854 169.953 94.6967 172.043 94.4899 174.295C92.3057 198.036 84.1888 233.665 84.1888 233.665Z" fill="url(#paint2_linear)"/>
<path d="M95.5235 167.333C95.5235 167.333 101.258 182.487 117.348 184.12C128.09 185.224 139.38 169.89 141.204 167.288L141.465 166.911V164.587L140.566 110.834L140.072 81.4772C140.072 81.4772 138.049 81.5669 129.986 80.0865C122.418 78.7047 119.604 79.3956 114.13 80.4364C104.153 82.3295 103.02 82.9486 101.546 84.2406C98.9662 86.4658 92.5572 112.36 101.6 133.669C105.294 142.498 95.5235 167.333 95.5235 167.333Z" fill="#F99D9D"/>
<path d="M95.5235 167.333C95.5235 167.333 101.258 182.487 117.348 184.12C123.371 184.739 129.555 180.199 134.157 175.623C136.731 173.042 139.088 170.254 141.204 167.288L141.465 166.911V164.587L141.15 145.916L140.575 110.834L140.081 81.4772C140.081 81.4772 138.058 81.5669 129.995 80.0865C122.427 78.7047 119.613 79.3956 114.139 80.4364C104.162 82.3295 103.029 82.9486 101.555 84.2406C98.9752 86.4657 92.5662 112.36 101.609 133.669C105.312 142.381 95.8381 166.687 95.5864 167.324L95.5235 167.333Z" fill="url(#paint3_linear)"/>
<path d="M130.939 243.077L134.041 242.808C136.486 242.583 140.027 242.808 142.319 241.911C147.757 239.775 144.809 237.263 143.874 231.915C141.969 220.951 143.946 209.727 144.477 198.718C144.683 194.187 142.616 177.472 141.196 167.252L141.456 166.875V164.552L141.142 145.88L136.369 149.173L135.47 159.339L134.077 174.134C134.077 174.134 134.077 174.663 134.148 175.597C134.499 183.259 135.946 218.726 132.8 224.998C130.202 230.22 130.58 238.887 130.939 243.077Z" fill="url(#paint4_linear)"/>
<path d="M114.984 135.015L108.35 113.185C108.16 112.559 107.77 112.012 107.239 111.628C106.708 111.244 106.066 111.044 105.411 111.059L88.0268 111.211C87.5552 111.216 87.0912 111.331 86.6722 111.547C86.2531 111.763 85.8909 112.074 85.6145 112.456C85.3381 112.837 85.1554 113.278 85.081 113.743C85.0067 114.208 85.0427 114.684 85.1864 115.132L95.856 148.33C96.0544 148.95 96.4491 149.489 96.9808 149.866C97.5124 150.243 98.1524 150.437 98.8043 150.42L115.487 149.954C115.949 149.94 116.401 149.821 116.809 149.605C117.217 149.389 117.57 149.082 117.84 148.708C118.111 148.334 118.291 147.903 118.368 147.449C118.445 146.994 118.416 146.528 118.283 146.087L114.984 135.015Z" fill="#F99D9D"/>
<path d="M114.984 135.015L108.35 113.185C108.16 112.559 107.77 112.012 107.239 111.628C106.708 111.244 106.066 111.044 105.411 111.059L88.0268 111.211C87.5552 111.216 87.0912 111.331 86.6722 111.547C86.2531 111.763 85.8909 112.074 85.6145 112.456C85.3381 112.837 85.1554 113.278 85.081 113.743C85.0067 114.208 85.0427 114.684 85.1864 115.132L95.856 148.33C96.0544 148.95 96.4491 149.489 96.9808 149.866C97.5124 150.243 98.1524 150.437 98.8043 150.42L115.487 149.954C115.949 149.94 116.401 149.821 116.809 149.605C117.217 149.389 117.57 149.082 117.84 148.708C118.111 148.334 118.291 147.903 118.368 147.449C118.445 146.994 118.416 146.528 118.283 146.087L114.984 135.015Z" fill="url(#paint5_linear)"/>
<path d="M112.683 134.925L106.247 113.194C106.092 112.594 105.744 112.062 105.257 111.678C104.77 111.294 104.171 111.08 103.55 111.068L87.838 111.229C87.3912 111.265 86.9588 111.404 86.5746 111.635C86.1905 111.865 85.8651 112.182 85.6239 112.559C85.3827 112.936 85.2323 113.364 85.1844 113.809C85.1366 114.254 85.1926 114.704 85.3481 115.123L95.7032 148.204C95.8655 148.795 96.2167 149.318 96.7034 149.692C97.19 150.066 97.7857 150.271 98.3998 150.277L113.501 149.81C113.939 149.768 114.362 149.626 114.737 149.396C115.112 149.165 115.43 148.853 115.665 148.482C115.901 148.11 116.049 147.691 116.098 147.254C116.146 146.817 116.094 146.375 115.946 145.961L112.683 134.925Z" fill="url(#paint6_linear)"/>
<path d="M135.344 37.9978C135.344 37.9978 134.724 57.8086 128.953 64.5826C122.867 71.7605 119.398 72.6577 112.018 69.6879C105.726 67.1936 104.989 50.0296 104.773 45.0949C104.225 32.2735 123.919 21.2286 135.344 37.9978Z" fill="#F6C8C9"/>
<path d="M129.753 105.55L141.42 164.587L140.53 110.844L139.928 96.793L129.753 105.55Z" fill="url(#paint7_linear)"/>
<path d="M133.052 50.5767C133.052 50.5767 133.375 47.5979 136.315 48.8809C139.254 50.164 136.494 55.3769 135.344 56.7855C134.193 58.1942 132 57.7635 132 57.7635" fill="#F6C8C9"/>
<path d="M105.133 31.7977C104.089 32.9444 103.293 34.2923 102.792 35.7583C102.291 37.2244 102.096 38.7774 102.22 40.3214C102.607 44.1525 105.312 47.0147 109.33 46.5122C109.33 46.5122 107.317 42.4926 109.897 40.5367C109.897 40.5367 110.598 45.2292 115.398 45.6599L118.49 45.4445C118.49 45.4445 117.411 41.1558 118.49 39.9714C119.568 38.7871 121.061 45.9739 123.883 46.5661C125.047 46.8456 126.237 47.0079 127.434 47.0506C128.063 47.1582 130.229 43.2463 130.265 43.1925C130.088 43.9032 129.991 44.6315 129.977 45.3638C129.767 46.5975 129.646 47.845 129.618 49.0962C129.528 52.1468 129.519 55.1974 129.618 58.2479C129.681 60.5 129.816 62.8328 130.876 64.8246C131.937 66.8165 134.166 68.3597 136.377 67.9021C134.508 66.7985 133.726 64.4837 133.537 62.3214C133.326 59.5238 133.52 56.7106 134.112 53.9682C134.517 51.761 134.238 48.6835 135.38 46.6737C138.858 40.5546 135.434 32.9462 129.492 30.0302C123.038 26.854 113.708 25.544 107.425 29.8148C106.581 30.3777 105.811 31.0439 105.133 31.7977Z" fill="#C47331"/>
<path d="M140.036 82.1412C140.036 82.1412 143.568 87.0131 149.852 106.77C152.189 114.1 156.62 130.511 156.62 130.511C156.62 130.511 147.326 133.678 140.764 133.678C137.825 116.675 130.768 110.09 129.447 102.275C128.126 94.4601 136.099 80.6338 140.036 82.1412Z" fill="#F99D9D"/>
<path d="M140.036 82.1412C140.036 82.1412 143.568 87.0131 149.852 106.77C152.189 114.1 156.62 130.511 156.62 130.511C156.62 130.511 147.326 133.678 140.764 133.678C137.825 116.675 130.768 110.09 129.447 102.275C128.126 94.4601 136.099 80.6338 140.036 82.1412Z" fill="url(#paint8_linear)"/>
<path d="M133.807 76.6504L133.942 80.2393C133.951 80.528 133.878 80.8133 133.731 81.0625C133.585 81.3117 133.371 81.5146 133.115 81.6479C133.115 81.6479 127.416 83.568 117.564 84.0884L110.319 82.2939C110.066 82.1796 109.849 81.9991 109.691 81.7717C109.533 81.5442 109.439 81.2782 109.42 81.0019L109.321 79.2075C109.298 78.8195 109.425 78.4375 109.676 78.1403C109.927 77.8431 110.283 77.6534 110.67 77.6104L132.108 75.1879C132.317 75.1643 132.529 75.1841 132.731 75.2461C132.932 75.3082 133.118 75.4111 133.278 75.5484C133.437 75.6858 133.567 75.8546 133.658 76.0442C133.749 76.2338 133.799 76.4402 133.807 76.6504Z" fill="#F99D9D"/>
<path d="M133.807 76.6504L133.942 80.2393C133.951 80.528 133.878 80.8133 133.731 81.0625C133.585 81.3117 133.371 81.5146 133.115 81.6479C133.115 81.6479 127.416 83.568 117.564 84.0884L110.319 82.2939C110.066 82.1796 109.849 81.9991 109.691 81.7717C109.533 81.5442 109.439 81.2782 109.42 81.0019L109.321 79.2075C109.298 78.8195 109.425 78.4375 109.676 78.1403C109.927 77.8431 110.283 77.6534 110.67 77.6104L132.108 75.1879C132.317 75.1643 132.529 75.1841 132.731 75.2461C132.932 75.3082 133.118 75.4111 133.278 75.5484C133.437 75.6858 133.567 75.8546 133.658 76.0442C133.749 76.2338 133.799 76.4402 133.807 76.6504Z" fill="url(#paint9_linear)"/>
<path d="M123.299 291.446C123.652 291.226 124.06 291.108 124.476 291.105C124.905 291.181 125.306 291.37 125.636 291.653C127.82 293.196 130.22 294.578 132.881 294.856C135.542 295.134 138.481 294.03 139.694 291.653C139.964 291.114 140.207 290.477 140.764 290.262C141.065 290.182 141.383 290.207 141.668 290.333C141.952 290.459 142.185 290.677 142.328 290.953C142.6 291.512 142.738 292.126 142.733 292.747L142.876 295.08C143.13 296.686 142.937 298.331 142.319 299.835C141.564 301.271 139.623 302.222 138.265 301.379C137.474 300.885 137.043 299.943 136.234 299.495C135.794 299.299 135.314 299.212 134.833 299.242C134.352 299.271 133.886 299.416 133.474 299.665C132.657 300.167 131.881 300.734 131.155 301.361C127.245 304.286 121.96 304.331 117.079 304.259C115.929 304.335 114.778 304.128 113.726 303.658C113.102 303.306 112.598 302.777 112.278 302.137C111.957 301.498 111.836 300.778 111.928 300.069C112.261 297.924 114.706 296.928 116.288 295.78C118.498 294.14 120.843 292.69 123.299 291.446Z" fill="#3F3D56"/>
<path d="M86.1212 291.76C86.472 291.511 86.9009 291.395 87.3298 291.435C87.7587 291.474 88.1592 291.666 88.4583 291.976C90.6426 293.51 93.0426 294.901 95.7032 295.179C98.3639 295.457 101.303 294.344 102.517 291.976C102.786 291.437 103.029 290.791 103.586 290.576C103.887 290.5 104.204 290.526 104.488 290.651C104.772 290.777 105.005 290.993 105.15 291.267C105.421 291.826 105.559 292.44 105.555 293.061L105.699 295.385C105.953 296.994 105.76 298.642 105.141 300.149C104.386 301.585 102.445 302.536 101.088 301.684C100.296 301.199 99.865 300.248 99.056 299.808C98.617 299.61 98.136 299.522 97.6551 299.552C97.1741 299.582 96.7077 299.728 96.2965 299.979C95.479 300.481 94.7035 301.048 93.9774 301.675C90.0673 304.6 84.7819 304.644 79.901 304.573C78.751 304.649 77.5998 304.442 76.5482 303.971C75.9245 303.62 75.4202 303.091 75.0999 302.451C74.7796 301.812 74.6579 301.091 74.7504 300.383C75.083 298.229 77.528 297.242 79.11 296.085C81.3247 294.454 83.6696 293.008 86.1212 291.76Z" fill="#3F3D56"/>
<path d="M123.299 291.446C123.652 291.226 124.06 291.108 124.476 291.105C124.905 291.181 125.306 291.37 125.636 291.653C127.82 293.196 130.22 294.578 132.881 294.856C135.542 295.134 138.481 294.03 139.694 291.653C139.964 291.114 140.207 290.477 140.764 290.262C141.065 290.182 141.383 290.207 141.668 290.333C141.952 290.459 142.185 290.677 142.328 290.953C142.6 291.512 142.738 292.126 142.733 292.747L142.876 295.08C143.13 296.686 142.937 298.331 142.319 299.835C141.564 301.271 139.623 302.222 138.265 301.379C137.474 300.885 137.043 299.943 136.234 299.495C135.794 299.299 135.314 299.212 134.833 299.242C134.352 299.271 133.886 299.416 133.474 299.665C132.657 300.167 131.881 300.734 131.155 301.361C127.245 304.286 121.96 304.331 117.079 304.259C115.929 304.335 114.778 304.128 113.726 303.658C113.102 303.306 112.598 302.777 112.278 302.137C111.957 301.498 111.836 300.778 111.928 300.069C112.261 297.924 114.706 296.928 116.288 295.78C118.498 294.14 120.843 292.69 123.299 291.446Z" fill="url(#paint10_linear)"/>
<path d="M86.1212 291.76C86.472 291.511 86.9009 291.395 87.3298 291.435C87.7587 291.474 88.1592 291.666 88.4583 291.976C90.6426 293.51 93.0426 294.901 95.7032 295.179C98.3639 295.457 101.303 294.344 102.517 291.976C102.786 291.437 103.029 290.791 103.586 290.576C103.887 290.5 104.204 290.526 104.488 290.651C104.772 290.777 105.005 290.993 105.15 291.267C105.421 291.826 105.559 292.44 105.555 293.061L105.699 295.385C105.953 296.994 105.76 298.642 105.141 300.149C104.386 301.585 102.445 302.536 101.088 301.684C100.296 301.199 99.865 300.248 99.056 299.808C98.617 299.61 98.136 299.522 97.6551 299.552C97.1741 299.582 96.7077 299.728 96.2965 299.979C95.479 300.481 94.7035 301.048 93.9774 301.675C90.0673 304.6 84.7819 304.644 79.901 304.573C78.751 304.649 77.5998 304.442 76.5482 303.971C75.9245 303.62 75.4202 303.091 75.0999 302.451C74.7796 301.812 74.6579 301.091 74.7504 300.383C75.083 298.229 77.528 297.242 79.11 296.085C81.3247 294.454 83.6696 293.008 86.1212 291.76Z" fill="url(#paint11_linear)"/>
<path d="M153.582 138.999C152.377 142.399 149.088 144.615 145.726 145.943C140.099 148.168 133.932 148.563 127.883 148.787C122.825 148.973 117.762 149.053 112.692 149.03C111.72 149.079 110.746 148.973 109.807 148.715C107.901 148.096 106.616 146.374 105.447 144.75C104.279 143.126 102.939 140.883 103.82 138.972C104.701 137.06 107.146 136.63 109.213 136.935C111.281 137.24 113.222 138.074 115.272 137.895L115.02 135.015C115.919 134.45 116.953 135.374 117.717 136.038C120.998 138.729 125.807 137.76 129.932 136.639L147.55 131.83C149.51 131.291 151.784 129.963 153.231 131.83C154.535 133.543 154.22 137.159 153.582 138.999Z" fill="#F6C8C9"/>
<path d="M102.715 111.157C102.463 110.408 101.953 109.772 101.276 109.363C100.378 108.788 94.9843 108.797 92.2876 108.842C91.3888 108.842 91.2809 110.018 92 111.381L91.8831 111.184L102.715 111.157Z" fill="#F99D9D"/>
<path d="M102.715 111.157C102.463 110.408 101.953 109.772 101.276 109.363C100.378 108.788 94.9843 108.797 92.2876 108.842C91.3888 108.842 91.2809 110.018 92 111.381L91.8831 111.184L102.715 111.157Z" fill="url(#paint12_linear)"/>
<path d="M125.753 18.7969L124.359 21.3002L127.883 22.664L126.607 24.8981L123.559 23.6958L122.679 25.6159L119.416 24.8173L120.566 22.8704L117.816 22.2602L119.047 19.9454L121.771 20.5286L122.84 18.3394L125.753 18.7969Z" fill="#F99D9D"/>
</g>
<defs>
<linearGradient id="paint0_linear" x1="129.438" y1="11.3766" x2="124.009" y2="28.9769" gradientUnits="userSpaceOnUse">
<stop offset="0.02" stop-color="white" stop-opacity="0"/>
<stop offset="0.39" stop-color="white" stop-opacity="0.39"/>
<stop offset="1" stop-color="white"/>
</linearGradient>
<linearGradient id="paint1_linear" x1="-3039.78" y1="4039.91" x2="-3236.31" y2="4016" gradientUnits="userSpaceOnUse">
<stop offset="0.02" stop-color="white" stop-opacity="0"/>
<stop offset="0.39" stop-color="white" stop-opacity="0.39"/>
<stop offset="1" stop-color="white"/>
</linearGradient>
<linearGradient id="paint2_linear" x1="-8078.79" y1="19985.6" x2="-12698.7" y2="19604.8" gradientUnits="userSpaceOnUse">
<stop offset="0.02" stop-color="white" stop-opacity="0"/>
<stop offset="0.39" stop-color="white" stop-opacity="0.39"/>
<stop offset="1" stop-color="white"/>
</linearGradient>
<linearGradient id="paint3_linear" x1="-7079.63" y1="15678.9" x2="-9733.68" y2="15678.9" gradientUnits="userSpaceOnUse">
<stop offset="0.02" stop-color="white" stop-opacity="0"/>
<stop offset="0.39" stop-color="white" stop-opacity="0.39"/>
<stop offset="1" stop-color="white"/>
</linearGradient>
<linearGradient id="paint4_linear" x1="193.411" y1="193.29" x2="125.142" y2="194.731" gradientUnits="userSpaceOnUse">
<stop offset="0.01"/>
<stop offset="0.83" stop-opacity="0.07"/>
<stop offset="1" stop-opacity="0"/>
</linearGradient>
<linearGradient id="paint5_linear" x1="-7487.44" y1="4732.29" x2="-7207.53" y2="5635.67" gradientUnits="userSpaceOnUse">
<stop offset="0.01"/>
<stop offset="0.83" stop-opacity="0.07"/>
<stop offset="1" stop-opacity="0"/>
</linearGradient>
<linearGradient id="paint6_linear" x1="-6999.3" y1="7468.61" x2="-6331.97" y2="5008.02" gradientUnits="userSpaceOnUse">
<stop offset="0.01"/>
<stop offset="0.83" stop-opacity="0.07"/>
<stop offset="1" stop-opacity="0"/>
</linearGradient>
<linearGradient id="paint7_linear" x1="-897.563" y1="9846.99" x2="-1286.73" y2="9854.24" gradientUnits="userSpaceOnUse">
<stop offset="0.01"/>
<stop offset="0.83" stop-opacity="0.07"/>
<stop offset="1" stop-opacity="0"/>
</linearGradient>
<linearGradient id="paint8_linear" x1="-4187.94" y1="6390.1" x2="-5018.17" y2="6390.1" gradientUnits="userSpaceOnUse">
<stop offset="0.02" stop-color="white" stop-opacity="0"/>
<stop offset="0.39" stop-color="white" stop-opacity="0.39"/>
<stop offset="1" stop-color="white"/>
</linearGradient>
<linearGradient id="paint9_linear" x1="-4694.26" y1="919.95" x2="-4707.16" y2="825.025" gradientUnits="userSpaceOnUse">
<stop offset="0.02" stop-color="white" stop-opacity="0"/>
<stop offset="0.39" stop-color="white" stop-opacity="0.39"/>
<stop offset="1" stop-color="white"/>
</linearGradient>
<linearGradient id="paint10_linear" x1="-5273.63" y1="4974.52" x2="-6347.07" y2="4974.52" gradientUnits="userSpaceOnUse">
<stop offset="0.01"/>
<stop offset="0.83" stop-opacity="0.07"/>
<stop offset="1" stop-opacity="0"/>
</linearGradient>
<linearGradient id="paint11_linear" x1="-6596.67" y1="4978.88" x2="-7670.13" y2="4978.88" gradientUnits="userSpaceOnUse">
<stop offset="0.01"/>
<stop offset="0.83" stop-opacity="0.07"/>
<stop offset="1" stop-opacity="0"/>
</linearGradient>
<linearGradient id="paint12_linear" x1="-2418.18" y1="424.779" x2="-2418.06" y2="433.991" gradientUnits="userSpaceOnUse">
<stop offset="0.02" stop-color="white" stop-opacity="0"/>
<stop offset="0.39" stop-color="white" stop-opacity="0.39"/>
<stop offset="1" stop-color="white"/>
</linearGradient>
<clipPath id="clip0">
<rect width="236" height="308" fill="white" transform="matrix(-1 0 0 1 236 0)"/>
</clipPath>
</defs>
</svg>
