<svg width="40" height="40" viewBox="0 0 40 40" fill="none" xmlns="http://www.w3.org/2000/svg">
<circle cx="20" cy="20" r="20" fill="#F794A4"/>
<path fill-rule="evenodd" clip-rule="evenodd" d="M13.9032 14.6058V28.0073H26.0968V14.6058H13.9032ZM13.4516 13.6131C13.2022 13.6131 13 13.8354 13 14.1095V28.5037C13 28.7778 13.2022 29 13.4516 29H26.5484C26.7978 29 27 28.7778 27 28.5037V14.1095C27 13.8354 26.7978 13.6131 26.5484 13.6131H13.4516Z" fill="white"/>
<path fill-rule="evenodd" clip-rule="evenodd" d="M13.9032 17.5839V28.0073H26.0968V17.5839H13.9032ZM13.4516 16.5912C13.2022 16.5912 13 16.8135 13 17.0876V28.5037C13 28.7778 13.2022 29 13.4516 29H26.5484C26.7978 29 27 28.7778 27 28.5037V17.0876C27 16.8135 26.7978 16.5912 26.5484 16.5912H13.4516Z" fill="white"/>
<path d="M21.129 12.4964C21.129 12.2222 21.3312 12 21.5806 12H24.2903C24.5397 12 24.7419 12.2222 24.7419 12.4964V15.3504C24.7419 15.6245 24.5397 15.8467 24.2903 15.8467H21.5806C21.3312 15.8467 21.129 15.6245 21.129 15.3504V12.4964Z" fill="white"/>
<path fill-rule="evenodd" clip-rule="evenodd" d="M22.0323 12.9927V14.854H23.8387V12.9927H22.0323ZM21.5806 12C21.3312 12 21.129 12.2222 21.129 12.4964V15.3504C21.129 15.6245 21.3312 15.8467 21.5806 15.8467H24.2903C24.5397 15.8467 24.7419 15.6245 24.7419 15.3504V12.4964C24.7419 12.2222 24.5397 12 24.2903 12H21.5806Z" fill="white"/>
<path d="M15.371 12.4964C15.371 12.2222 15.5732 12 15.8226 12H18.5323C18.7817 12 18.9839 12.2222 18.9839 12.4964V15.3504C18.9839 15.6245 18.7817 15.8467 18.5323 15.8467H15.8226C15.5732 15.8467 15.371 15.6245 15.371 15.3504V12.4964Z" fill="white"/>
<path fill-rule="evenodd" clip-rule="evenodd" d="M16.2742 12.9927V14.854H18.0806V12.9927H16.2742ZM15.8226 12C15.5732 12 15.371 12.2222 15.371 12.4964V15.3504C15.371 15.6245 15.5732 15.8467 15.8226 15.8467H18.5323C18.7817 15.8467 18.9839 15.6245 18.9839 15.3504V12.4964C18.9839 12.2222 18.7817 12 18.5323 12H15.8226Z" fill="white"/>
<path fill-rule="evenodd" clip-rule="evenodd" d="M16.1613 19.8175V25.7737H23.8387V19.8175H16.1613ZM15.7097 18.8248C15.4603 18.8248 15.2581 19.047 15.2581 19.3212V26.2701C15.2581 26.5442 15.4603 26.7664 15.7097 26.7664H24.2903C24.5397 26.7664 24.7419 26.5442 24.7419 26.2701V19.3212C24.7419 19.047 24.5397 18.8248 24.2903 18.8248H15.7097Z" fill="white"/>
<path fill-rule="evenodd" clip-rule="evenodd" d="M16.1613 22.1752V25.7737H23.8387V22.1752H16.1613ZM15.7097 21.1825C15.4603 21.1825 15.2581 21.4047 15.2581 21.6788V26.2701C15.2581 26.5442 15.4603 26.7664 15.7097 26.7664H24.2903C24.5397 26.7664 24.7419 26.5442 24.7419 26.2701V21.6788C24.7419 21.4047 24.5397 21.1825 24.2903 21.1825H15.7097Z" fill="white"/>
<path fill-rule="evenodd" clip-rule="evenodd" d="M16.1613 19.8175V25.7737H17.9677V19.8175H16.1613ZM15.7097 18.8248C15.4603 18.8248 15.2581 19.047 15.2581 19.3212V26.2701C15.2581 26.5442 15.4603 26.7664 15.7097 26.7664H18.4194C18.6688 26.7664 18.871 26.5442 18.871 26.2701V19.3212C18.871 19.047 18.6688 18.8248 18.4194 18.8248H15.7097Z" fill="white"/>
<path fill-rule="evenodd" clip-rule="evenodd" d="M16.1613 19.8175V25.7737H21.2419V19.8175H16.1613ZM15.7097 18.8248C15.4603 18.8248 15.2581 19.047 15.2581 19.3212V26.2701C15.2581 26.5442 15.4603 26.7664 15.7097 26.7664H21.6935C21.943 26.7664 22.1452 26.5442 22.1452 26.2701V19.3212C22.1452 19.047 21.943 18.8248 21.6935 18.8248H15.7097Z" fill="white"/>
<path fill-rule="evenodd" clip-rule="evenodd" d="M16.1613 24.6569V25.7737H23.8387V24.6569H16.1613ZM15.7097 23.6642C15.4603 23.6642 15.2581 23.8865 15.2581 24.1606V26.2701C15.2581 26.5442 15.4603 26.7664 15.7097 26.7664H24.2903C24.5397 26.7664 24.7419 26.5442 24.7419 26.2701V24.1606C24.7419 23.8865 24.5397 23.6642 24.2903 23.6642H15.7097Z" fill="white"/>
</svg>
