<svg width="22" height="24" viewBox="0 0 22 24" fill="none" xmlns="http://www.w3.org/2000/svg">
<path fill-rule="evenodd" clip-rule="evenodd" d="M1.40146 3.67883V22.5985H20.3212V3.67883H1.40146ZM0.70073 2.27737C0.313727 2.27737 0 2.5911 0 2.9781V23.2993C0 23.6863 0.313728 24 0.700731 24H21.0219C21.4089 24 21.7226 23.6863 21.7226 23.2993V2.9781C21.7226 2.5911 21.4089 2.27737 21.0219 2.27737H0.70073Z" fill="#F794A4"/>
<path fill-rule="evenodd" clip-rule="evenodd" d="M1.40146 7.88321V22.5985H20.3212V7.88321H1.40146ZM0.70073 6.48175C0.313727 6.48175 0 6.79548 0 7.18248V23.2993C0 23.6863 0.313728 24 0.700731 24H21.0219C21.4089 24 21.7226 23.6863 21.7226 23.2993V7.18248C21.7226 6.79548 21.4089 6.48175 21.0219 6.48175H0.70073Z" fill="#F794A4"/>
<path d="M12.6131 0.70073C12.6131 0.313727 12.9269 0 13.3139 0H17.5182C17.9053 0 18.219 0.313727 18.219 0.70073V4.72993C18.219 5.11693 17.9053 5.43066 17.5182 5.43066H13.3139C12.9269 5.43066 12.6131 5.11693 12.6131 4.72993V0.70073Z" fill="#F794A4"/>
<path fill-rule="evenodd" clip-rule="evenodd" d="M14.0146 1.40146V4.0292H16.8175V1.40146H14.0146ZM13.3139 0C12.9269 0 12.6131 0.313727 12.6131 0.70073V4.72993C12.6131 5.11693 12.9269 5.43066 13.3139 5.43066H17.5182C17.9053 5.43066 18.219 5.11693 18.219 4.72993V0.70073C18.219 0.313727 17.9053 0 17.5182 0H13.3139Z" fill="#F794A4"/>
<path d="M3.67883 0.70073C3.67883 0.313727 3.99256 0 4.37956 0H8.58394C8.97094 0 9.28467 0.313727 9.28467 0.70073V4.72993C9.28467 5.11693 8.97094 5.43066 8.58394 5.43066H4.37956C3.99256 5.43066 3.67883 5.11693 3.67883 4.72993V0.70073Z" fill="#F794A4"/>
<path fill-rule="evenodd" clip-rule="evenodd" d="M5.08029 1.40146V4.0292H7.88321V1.40146H5.08029ZM4.37956 0C3.99256 0 3.67883 0.313727 3.67883 0.70073V4.72993C3.67883 5.11693 3.99256 5.43066 4.37956 5.43066H8.58394C8.97094 5.43066 9.28467 5.11693 9.28467 4.72993V0.70073C9.28467 0.313727 8.97094 0 8.58394 0H4.37956Z" fill="#F794A4"/>
<path fill-rule="evenodd" clip-rule="evenodd" d="M4.90511 11.0365V19.4453H16.8175V11.0365H4.90511ZM4.20438 9.63504C3.81738 9.63504 3.50365 9.94876 3.50365 10.3358V20.146C3.50365 20.533 3.81738 20.8467 4.20438 20.8467H17.5182C17.9053 20.8467 18.219 20.533 18.219 20.146V10.3358C18.219 9.94876 17.9053 9.63504 17.5182 9.63504H4.20438Z" fill="#F794A4"/>
<path fill-rule="evenodd" clip-rule="evenodd" d="M4.90511 14.365V19.4453H16.8175V14.365H4.90511ZM4.20438 12.9635C3.81738 12.9635 3.50365 13.2772 3.50365 13.6642V20.146C3.50365 20.533 3.81738 20.8467 4.20438 20.8467H17.5182C17.9053 20.8467 18.219 20.533 18.219 20.146V13.6642C18.219 13.2772 17.9053 12.9635 17.5182 12.9635H4.20438Z" fill="#F794A4"/>
<path fill-rule="evenodd" clip-rule="evenodd" d="M4.90511 11.0365V19.4453H7.70803V11.0365H4.90511ZM4.20438 9.63504C3.81738 9.63504 3.50365 9.94876 3.50365 10.3358V20.146C3.50365 20.533 3.81738 20.8467 4.20438 20.8467H8.40876C8.79576 20.8467 9.10949 20.533 9.10949 20.146V10.3358C9.10949 9.94876 8.79576 9.63504 8.40876 9.63504H4.20438Z" fill="#F794A4"/>
<path fill-rule="evenodd" clip-rule="evenodd" d="M4.90511 11.0365V19.4453H12.7883V11.0365H4.90511ZM4.20438 9.63504C3.81738 9.63504 3.50365 9.94876 3.50365 10.3358V20.146C3.50365 20.533 3.81738 20.8467 4.20438 20.8467H13.4891C13.8761 20.8467 14.1898 20.533 14.1898 20.146V10.3358C14.1898 9.94876 13.8761 9.63504 13.4891 9.63504H4.20438Z" fill="#F794A4"/>
<path fill-rule="evenodd" clip-rule="evenodd" d="M4.90511 17.8686V19.4453H16.8175V17.8686H4.90511ZM4.20438 16.4672C3.81738 16.4672 3.50365 16.7809 3.50365 17.1679V20.146C3.50365 20.533 3.81738 20.8467 4.20438 20.8467H17.5182C17.9053 20.8467 18.219 20.533 18.219 20.146V17.1679C18.219 16.7809 17.9053 16.4672 17.5182 16.4672H4.20438Z" fill="#F794A4"/>
</svg>
