<svg width="40" height="40" viewBox="0 0 40 40" fill="none" xmlns="http://www.w3.org/2000/svg">
<circle cx="20" cy="20" r="20" fill="#F794A4"/>
<path fill-rule="evenodd" clip-rule="evenodd" d="M28.7891 18.7891V26.4849C29.57 27.2812 30 28.321 30 29.4141C30 29.7377 29.7377 30 29.4141 30H10.5859C10.2623 30 10 29.7377 10 29.4141C10 28.321 10.43 27.2812 11.2109 26.485V18.7891C11.2109 13.9309 15.1425 10 20 10C24.8581 10 28.7891 13.9316 28.7891 18.7891ZM18.2422 19.9609C18.2422 20.2845 17.9799 20.5469 17.6562 20.5469C17.3326 20.5469 17.0703 20.2845 17.0703 19.9609C17.0703 19.6373 17.3326 19.375 17.6562 19.375C17.9799 19.375 18.2422 19.6373 18.2422 19.9609ZM21.9527 23.3149C22.1937 23.0989 22.5642 23.1192 22.7801 23.3602C22.9961 23.6012 22.9758 23.9717 22.7347 24.1876C21.9814 24.8627 21.0101 25.2345 20 25.2345C18.9899 25.2345 18.0186 24.8627 17.2653 24.1876C17.0242 23.9717 17.0039 23.6013 17.2199 23.3603C17.4358 23.1192 17.8063 23.0989 18.0472 23.3149C18.5854 23.7971 19.2789 24.0626 20 24.0626C20.7211 24.0626 21.4146 23.7971 21.9527 23.3149ZM22.3438 20.5469C22.6674 20.5469 22.9297 20.2845 22.9297 19.9609C22.9297 19.6373 22.6674 19.375 22.3438 19.375C22.0201 19.375 21.7578 19.6373 21.7578 19.9609C21.7578 20.2845 22.0201 20.5469 22.3438 20.5469ZM26.4453 20.5469V18.7891V18.2031C27.0915 18.2031 27.6172 18.7288 27.6172 19.375C27.6172 20.0212 27.0915 20.5469 26.4453 20.5469ZM27.6171 25.6381V21.4033C27.2721 21.6034 26.872 21.7186 26.4453 21.7186H26.4184C26.298 23.0471 25.7734 24.2606 24.9682 25.2342H25.8593C26.4745 25.2342 27.0718 25.3737 27.6171 25.6381ZM23.9168 12.2585C25.7145 13.3407 27.0312 15.1436 27.4638 17.2644C27.1556 17.1151 26.8101 17.0313 26.4453 17.0313H26.2006C25.7839 15.5622 24.8534 14.2734 23.5577 13.4149C23.7076 13.0407 23.828 12.6541 23.9168 12.2585ZM25.2734 21.1329V18.7892C25.2734 17.0613 24.4279 15.4572 23.0336 14.4756C21.6505 16.8014 19.1579 18.2032 16.4844 18.2032H14.7592C14.7377 18.3973 14.7266 18.5931 14.7266 18.7892V21.1329C14.7266 24.0407 17.0922 26.4063 20 26.4063C22.9078 26.4063 25.2734 24.0407 25.2734 21.1329ZM20 11.1719C20.9998 11.1719 21.955 11.3659 22.8305 11.7175C22.2868 14.8001 19.6389 17.0312 16.4844 17.0312H13.5547C13.1899 17.0312 12.8444 17.1151 12.5362 17.2644C13.2444 13.7924 16.3219 11.1719 20 11.1719ZM13.5547 18.7891V18.2031C12.9085 18.2031 12.3828 18.7288 12.3828 19.375C12.3828 20.0212 12.9085 20.5469 13.5547 20.5469V18.7891ZM12.3828 21.4033C12.7279 21.6034 13.1279 21.7186 13.5547 21.7186H13.5816C13.7019 23.0471 14.2266 24.2606 15.0318 25.2342H14.1406C13.5254 25.2342 12.9282 25.3737 12.3828 25.6381V21.4033ZM14.1406 26.4062C12.7286 26.4062 11.5089 27.4668 11.2311 28.8281H28.7689C28.4911 27.4668 27.2714 26.4062 25.8594 26.4062H23.7015C22.6533 27.1442 21.3764 27.5781 20 27.5781C18.6235 27.5781 17.3467 27.1442 16.2985 26.4062H14.1406Z" fill="#F9FAFB"/>
</svg>
