<svg width="24" height="24" viewBox="0 0 24 24" fill="none" xmlns="http://www.w3.org/2000/svg">
<path fill-rule="evenodd" clip-rule="evenodd" d="M22.5469 10.5469V19.7819C23.484 20.7374 24 21.9852 24 23.2969C24 23.6852 23.6852 24 23.2969 24H0.703125C0.314812 24 0 23.6852 0 23.2969C0 21.9852 0.516047 20.7375 1.45312 19.782V10.5469C1.45312 4.71712 6.17105 0 12 0C17.8297 0 22.5469 4.71797 22.5469 10.5469ZM9.89062 11.9531C9.89062 12.3414 9.57582 12.6562 9.1875 12.6562C8.79918 12.6562 8.48438 12.3414 8.48438 11.9531C8.48438 11.5648 8.79918 11.25 9.1875 11.25C9.57582 11.25 9.89062 11.5648 9.89062 11.9531ZM14.3433 15.9778C14.6325 15.7187 15.0771 15.743 15.3361 16.0323C15.5953 16.3215 15.5709 16.766 15.2817 17.0252C14.3777 17.8352 13.2122 18.2814 12 18.2814C10.7879 18.2814 9.62237 17.8352 8.71834 17.0252C8.42912 16.766 8.40474 16.3215 8.66387 16.0323C8.92299 15.743 9.3676 15.7187 9.65673 15.9778C10.3025 16.5565 11.1347 16.8751 12 16.8751C12.8653 16.8751 13.6975 16.5565 14.3433 15.9778ZM14.8125 12.6562C15.2008 12.6562 15.5156 12.3414 15.5156 11.9531C15.5156 11.5648 15.2008 11.25 14.8125 11.25C14.4242 11.25 14.1094 11.5648 14.1094 11.9531C14.1094 12.3414 14.4242 12.6562 14.8125 12.6562ZM19.7344 12.6562V10.5469V9.84375C20.5098 9.84375 21.1406 10.4746 21.1406 11.25C21.1406 12.0254 20.5098 12.6562 19.7344 12.6562ZM21.1406 18.7658V13.684C20.7266 13.9241 20.2465 14.0624 19.7344 14.0624H19.7021C19.5577 15.6565 18.9281 17.1127 17.9618 18.2811H19.0312C19.7695 18.2811 20.4862 18.4485 21.1406 18.7658ZM16.7002 2.71025C18.8573 4.00893 20.4375 6.17235 20.9566 8.71738C20.5868 8.53818 20.1721 8.43758 19.7344 8.43758H19.4407C18.9407 6.67471 17.8241 5.12816 16.2693 4.09789C16.4491 3.64893 16.5936 3.185 16.7002 2.71025ZM18.3281 13.3595V10.547C18.3281 8.47355 17.3135 6.54867 15.6404 5.3707C13.9806 8.16164 10.9895 9.84384 7.78125 9.84384H5.71102C5.68528 10.0768 5.67188 10.3118 5.67188 10.547V13.3595C5.67188 16.8488 8.51067 19.6876 12 19.6876C15.4893 19.6876 18.3281 16.8488 18.3281 13.3595ZM12 1.40625C13.1997 1.40625 14.346 1.63903 15.3966 2.06105C14.7441 5.76009 11.5667 8.4375 7.78127 8.4375H4.26564C3.82792 8.4375 3.41327 8.53809 3.04347 8.7173C3.89327 4.55086 7.58627 1.40625 12 1.40625ZM4.26562 10.5469V9.84375C3.49022 9.84375 2.85938 10.4746 2.85938 11.25C2.85938 12.0254 3.49022 12.6562 4.26562 12.6562V10.5469ZM2.85938 13.684C3.27342 13.9241 3.75352 14.0624 4.26562 14.0624H4.29792C4.4423 15.6565 5.07188 17.1127 6.03816 18.2811H4.96875C4.23052 18.2811 3.51384 18.4485 2.85938 18.7658V13.684ZM4.96873 19.6875C3.27434 19.6875 1.81062 20.9601 1.47729 22.5938H22.5227C22.1893 20.9601 20.7256 19.6875 19.0312 19.6875H16.4418C15.184 20.573 13.6517 21.0938 12 21.0938C10.3482 21.0938 8.816 20.573 7.5582 19.6875H4.96873Z" fill="#F794A4"/>
</svg>
