<svg width="40" height="40" viewBox="0 0 40 40" fill="none" xmlns="http://www.w3.org/2000/svg">
<circle cx="20" cy="20" r="20" fill="#F794A4"/>
<path fill-rule="evenodd" clip-rule="evenodd" d="M20.6172 11.5273C20.6172 11.2361 20.8533 11 21.1445 11C24.9246 11 28 14.0911 28 17.8906V18.9805C28 21.5441 25.9568 23.6392 23.4133 23.7236L21.5931 24.8925L23.4541 26.0876C23.7007 25.9286 23.9939 25.8359 24.3086 25.8359C25.1809 25.8359 25.8906 26.5456 25.8906 27.418C25.8906 28.2903 25.1809 29 24.3086 29C23.6211 29 23.035 28.5591 22.8173 27.9453H18.4171C18.1994 28.5591 17.6133 29 16.9258 29C16.0534 29 15.3438 28.2903 15.3438 27.418C15.3438 26.5456 16.0534 25.8359 16.9258 25.8359C17.2404 25.8359 17.5336 25.9286 17.7803 26.0876L19.6413 24.8925L17.8211 23.7236C15.2776 23.6392 13.2344 21.5441 13.2344 18.9805V16.8359C13.2344 16.5452 12.9978 16.3086 12.707 16.3086H10.5273C10.2361 16.3086 10 16.0725 10 15.7812C10 15.49 10.2361 15.2539 10.5273 15.2539H12.707C13.5794 15.2539 14.2891 15.9636 14.2891 16.8359V17.3633H20.6172V11.5273ZM16.3984 27.418C16.3984 27.7087 16.635 27.9453 16.9258 27.9453C17.2166 27.9453 17.4531 27.7087 17.4531 27.418C17.4531 27.1272 17.2166 26.8906 16.9258 26.8906C16.635 26.8906 16.3984 27.1272 16.3984 27.418ZM23.7812 27.418V27.4176C23.7814 27.127 24.0179 26.8906 24.3086 26.8906C24.5994 26.8906 24.8359 27.1272 24.8359 27.418C24.8359 27.7087 24.5994 27.9453 24.3086 27.9453C24.0179 27.9453 23.7815 27.7089 23.7812 27.4183V27.418ZM22.4176 17.3633H26.9219C26.8139 16.1562 26.3388 15.054 25.6104 14.1705L22.4176 17.3633ZM21.6719 12.0786C22.8828 12.1888 23.9874 12.6752 24.8693 13.4201L21.6719 16.6175V12.0786ZM20.6172 25.5192L18.4817 26.8906H22.7527L20.6172 25.5192ZM21.4568 23.7266L20.6172 24.2658L19.7775 23.7266H21.4568ZM23.2539 22.6719C25.2893 22.6719 26.9453 21.0159 26.9453 18.9805V18.418H14.2891V18.9805C14.2891 21.0159 15.945 22.6719 17.9805 22.6719H23.2539Z" fill="white"/>
</svg>
