<svg width="19" height="24" viewBox="0 0 19 24" fill="none" xmlns="http://www.w3.org/2000/svg">
<path fill-rule="evenodd" clip-rule="evenodd" d="M9.94565 0H8.44565V1.61267C5.74797 2.16796 3.70966 4.70966 3.70966 7.76087V12.487C3.70966 14.323 2.82259 16.0276 1.3641 16.9925L0.377648 17.7196C-0.201801 18.1461 -0.0943875 19.0938 0.562516 19.3599C0.791227 19.4523 1.03382 19.5 1.27861 19.5H9.19469H9.5553H17.4714C17.7162 19.5 17.9588 19.4523 18.1875 19.3599C18.8444 19.0938 18.9518 18.1461 18.3723 17.7196L17.3859 16.9925C15.9274 16.0276 15.0403 14.323 15.0403 12.487V7.76087C15.0403 4.57582 12.8193 1.94596 9.94565 1.55119V0ZM6.19565 21C6.31827 22.257 7.60671 23.25 9.19612 23.25C10.7846 23.25 12.073 22.257 12.1957 21H6.19565Z" fill="#F794A4"/>
</svg>
