<svg width="24" height="24" viewBox="0 0 24 24" fill="none" xmlns="http://www.w3.org/2000/svg">
<path fill-rule="evenodd" clip-rule="evenodd" d="M0.538321 14.7913C0.393819 14.7913 0.264527 14.6897 0.234866 14.5427C-0.0330966 13.2133 -0.0719927 11.8649 0.119337 10.5349C0.30422 9.24938 0.69941 8.00891 1.29393 6.84793C1.37194 6.69557 1.55867 6.6353 1.711 6.71335C1.86332 6.79136 1.92359 6.97809 1.84558 7.13041C1.28231 8.23033 0.907906 9.40547 0.732765 10.6231C0.55154 11.8829 0.588444 13.1604 0.842392 14.4202C0.876217 14.5879 0.767642 14.7514 0.599889 14.7852C0.579209 14.7893 0.558602 14.7913 0.538321 14.7913Z" fill="#F794A4"/>
<path fill-rule="evenodd" clip-rule="evenodd" d="M2.51972 5.75561C2.45635 5.75561 2.39243 5.73624 2.33734 5.69604C2.19907 5.59518 2.16879 5.40131 2.26965 5.26307C4.00944 2.87875 6.56238 1.2441 9.45826 0.660297C12.0276 0.142262 14.6263 0.477297 16.9733 1.6293C17.1269 1.7047 17.1903 1.89038 17.1149 2.04404C17.0395 2.19767 16.8539 2.26105 16.7002 2.18568C14.477 1.09442 12.0151 0.777058 9.58074 1.26786C6.83719 1.82095 4.41854 3.36955 2.7703 5.62835C2.70964 5.7115 2.61534 5.75561 2.51972 5.75561Z" fill="#F794A4"/>
<path fill-rule="evenodd" clip-rule="evenodd" d="M23.036 10.2549C22.8915 10.2549 22.7622 10.1533 22.7325 10.0061C22.1644 7.18732 20.5557 4.72556 18.2027 3.07432C18.0626 2.976 18.0288 2.78275 18.127 2.64266C18.2254 2.50254 18.4187 2.46868 18.5587 2.56701C21.0423 4.30995 22.7404 6.90838 23.3401 9.88368C23.3739 10.0515 23.2653 10.2149 23.0976 10.2487C23.0769 10.2529 23.0563 10.2549 23.036 10.2549Z" fill="#F794A4"/>
<path fill-rule="evenodd" clip-rule="evenodd" d="M23.2691 12.7539C23.2671 12.7539 23.2651 12.7539 23.2631 12.7538C23.092 12.7506 22.9559 12.6092 22.9591 12.4381C22.9747 11.6251 22.9005 10.8065 22.7388 10.005C22.705 9.83724 22.8136 9.67384 22.9813 9.63997C23.1493 9.60611 23.3125 9.71469 23.3464 9.88244C23.517 10.7281 23.5952 11.5918 23.5789 12.4499C23.5756 12.619 23.4375 12.7539 23.2691 12.7539Z" fill="#F794A4"/>
<path fill-rule="evenodd" clip-rule="evenodd" d="M0.654261 15.2797C0.514974 15.2797 0.388398 15.1852 0.353595 15.0439C0.311801 14.874 0.273847 14.7051 0.240818 14.5417C0.206919 14.3739 0.315459 14.2105 0.483212 14.1766C0.651183 14.1427 0.814445 14.2512 0.848343 14.419C0.879634 14.5739 0.915633 14.7343 0.955398 14.8957C0.996322 15.0619 0.894808 15.2298 0.728613 15.2707C0.703732 15.2768 0.678779 15.2797 0.654261 15.2797Z" fill="#F794A4"/>
<path fill-rule="evenodd" clip-rule="evenodd" d="M8.8249 23.6108C8.75225 23.6108 8.67935 23.5855 8.62046 23.5337C8.49193 23.4208 8.47926 23.225 8.59225 23.0964C9.84761 21.6676 10.7785 19.9465 11.2842 18.1191C11.8145 16.2033 11.8825 14.2367 11.4866 12.2741C11.4527 12.1063 11.5613 11.9429 11.7291 11.909C11.8969 11.8751 12.0603 11.9838 12.0941 12.1515C12.5095 14.2105 12.438 16.2739 11.8815 18.2845C11.351 20.2014 10.3746 22.0068 9.05781 23.5055C8.99657 23.5752 8.91092 23.6108 8.8249 23.6108Z" fill="#F794A4"/>
<path fill-rule="evenodd" clip-rule="evenodd" d="M7.34123 23.1029C7.26322 23.1029 7.18514 23.0736 7.12487 23.0148C7.00236 22.8953 6.99993 22.6992 7.11944 22.5766C8.17655 21.4929 8.99152 20.2286 9.54165 18.8188C9.60387 18.6595 9.78364 18.5807 9.94296 18.6428C10.1024 18.705 10.1812 18.8847 10.119 19.0441C9.5385 20.5317 8.67858 21.8658 7.56305 23.0093C7.50235 23.0716 7.42185 23.1029 7.34123 23.1029Z" fill="#F794A4"/>
<path fill-rule="evenodd" clip-rule="evenodd" d="M10.4313 23.9202C10.3645 23.9202 10.2973 23.8987 10.2407 23.8545C10.1059 23.749 10.082 23.5543 10.1873 23.4195C12.7186 20.1803 13.7047 16.0147 12.893 11.9907L12.8722 11.8873C12.7966 11.6344 12.6367 11.4178 12.4141 11.2699C12.1622 11.1026 11.8603 11.0434 11.5641 11.1032C11.0033 11.2162 10.6227 11.7279 10.6577 12.2836L10.6882 12.4349C11.0106 14.0348 11.0021 15.6488 10.663 17.232C10.6271 17.3993 10.4624 17.5059 10.2951 17.4701C10.1278 17.4343 10.0211 17.2695 10.057 17.1022C10.3571 15.7011 10.3838 14.2741 10.1368 12.8562L10.1304 12.8573L10.0704 12.5592C9.87954 11.6122 10.4946 10.6864 11.4415 10.4956C11.9 10.403 12.3673 10.4947 12.7571 10.7537C13.1469 11.0127 13.4125 11.4079 13.5051 11.8666L13.5597 12.1369L13.5526 12.1392C14.3031 16.2563 13.2617 20.4918 10.6757 23.8011C10.6146 23.8793 10.5234 23.9202 10.4313 23.9202Z" fill="#F794A4"/>
<path fill-rule="evenodd" clip-rule="evenodd" d="M5.98585 22.4226C5.90306 22.4226 5.82052 22.3897 5.7595 22.3244C5.64256 22.1995 5.64911 22.0034 5.7741 21.8864C8.07845 19.7307 9.20228 16.5833 8.78029 13.4673C8.75733 13.2977 8.87622 13.1415 9.04579 13.1186C9.21553 13.0956 9.37148 13.2145 9.39448 13.3841C9.84334 16.6987 8.64817 20.0464 6.1975 22.339C6.13774 22.3949 6.06172 22.4226 5.98585 22.4226Z" fill="#F794A4"/>
<path fill-rule="evenodd" clip-rule="evenodd" d="M14.9174 15.0471C14.7466 15.0471 14.608 14.9089 14.6075 14.738C14.6049 13.728 14.5012 12.7081 14.2996 11.7067L14.2754 11.5868C14.12 10.9658 13.7442 10.4325 13.2074 10.0757C12.6367 9.69651 11.9525 9.56233 11.2808 9.69778C10.2727 9.90109 9.48553 10.6829 9.27537 11.6895C9.24042 11.857 9.07622 11.9646 8.90872 11.9295C8.74118 11.8945 8.63373 11.7303 8.66872 11.5628C8.92958 10.3132 9.9068 9.34264 11.1583 9.09029C11.9922 8.92199 12.8418 9.08862 13.5504 9.55957C14.259 10.0305 14.7418 10.7492 14.9098 11.5832L14.9598 11.8316L14.9553 11.8335C15.1333 12.7943 15.2248 13.7696 15.2273 14.7364C15.2277 14.9075 15.0894 15.0466 14.9182 15.0471H14.9174Z" fill="#F794A4"/>
<path fill-rule="evenodd" clip-rule="evenodd" d="M12.154 23.9931C12.0937 23.9931 12.0328 23.9755 11.9793 23.9389C11.838 23.8423 11.8019 23.6495 11.8985 23.5082C13.3223 21.4271 14.2249 19.0111 14.5087 16.5214C14.5281 16.3514 14.6819 16.2292 14.8517 16.2486C15.0217 16.268 15.1439 16.4216 15.1245 16.5916C14.8293 19.1813 13.8906 21.694 12.41 23.8581C12.35 23.9459 12.2528 23.9931 12.154 23.9931Z" fill="#F794A4"/>
<path fill-rule="evenodd" clip-rule="evenodd" d="M4.76106 21.5954C4.67429 21.5954 4.58795 21.5591 4.52667 21.4884C4.41465 21.359 4.4287 21.1633 4.55807 21.0513C5.65172 20.104 6.4839 18.8818 6.96456 17.5169C7.4262 16.2059 7.54854 14.7958 7.32237 13.4201L7.31987 13.4205L7.26037 13.1256C7.01638 11.9162 7.25802 10.6842 7.9408 9.6567C8.62347 8.62921 9.66552 7.92908 10.875 7.68524C11.2956 7.60035 11.7241 7.57405 12.1487 7.60705C12.3194 7.62034 12.4469 7.7694 12.4336 7.94002C12.4203 8.11067 12.2716 8.23811 12.1007 8.22493C11.7332 8.19632 11.3621 8.21921 10.9975 8.29276C9.95029 8.5039 9.04807 9.11005 8.45699 9.99966C7.91324 10.818 7.69265 11.7861 7.8252 12.7511L7.87575 13.0017C8.19399 14.5797 8.08103 16.2122 7.54912 17.7227C7.03275 19.1891 6.13876 20.5021 4.9638 21.5197C4.90516 21.5705 4.83295 21.5954 4.76106 21.5954Z" fill="#F794A4"/>
<path fill-rule="evenodd" clip-rule="evenodd" d="M13.9834 23.7853C13.9301 23.7853 13.8762 23.7716 13.8269 23.7427C13.6793 23.6561 13.6298 23.4662 13.7164 23.3186C15.8222 19.7292 16.5285 15.5047 15.7054 11.4232L15.6783 11.289C15.4194 10.1987 14.7164 9.26721 13.7331 8.71879C13.5836 8.63542 13.53 8.44666 13.6134 8.2972C13.6967 8.14773 13.8855 8.0941 14.035 8.1775C15.2165 8.83653 16.0476 9.97458 16.3151 11.2998L16.3683 11.5631L16.364 11.5646C17.1353 15.7135 16.3887 19.9884 14.251 23.6322C14.1933 23.7306 14.0898 23.7853 13.9834 23.7853Z" fill="#F794A4"/>
<path fill-rule="evenodd" clip-rule="evenodd" d="M3.67153 20.6358C3.58186 20.6358 3.49291 20.5971 3.43163 20.5223C3.32316 20.3899 3.34258 20.1946 3.47498 20.0862C4.3927 19.3345 5.10503 18.3523 5.53499 17.2456C5.59696 17.086 5.77652 17.007 5.93605 17.069C6.09558 17.131 6.17464 17.3105 6.11267 17.47C5.64411 18.676 4.86782 19.7464 3.86771 20.5656C3.81013 20.6128 3.74059 20.6358 3.67153 20.6358Z" fill="#F794A4"/>
<path fill-rule="evenodd" clip-rule="evenodd" d="M17.5413 18.1025C17.5246 18.1025 17.5077 18.1011 17.4907 18.0983C17.3218 18.0705 17.2074 17.9111 17.2352 17.7423C17.5953 15.5545 17.5538 13.3331 17.1119 11.1397L17.0951 11.0563C16.7935 9.66919 15.9787 8.47558 14.7937 7.68827C13.5853 6.88536 12.1364 6.60118 10.7143 6.88808C9.29164 7.17484 8.06598 7.99832 7.26303 9.20689C6.51194 10.3373 6.21475 11.6781 6.41434 13.0108L6.46961 13.2853C6.62164 14.0407 6.65753 14.8073 6.57623 15.5639C6.55797 15.7341 6.4051 15.8571 6.23503 15.8389C6.06485 15.8206 5.94176 15.6678 5.96004 15.4977C6.02364 14.9055 6.0089 14.3063 5.91637 13.7122L5.85531 13.4094C5.53559 11.8247 5.85219 10.2104 6.7468 8.86392C7.64141 7.51748 9.00691 6.60002 10.5918 6.28052C12.1762 5.96095 13.7903 6.27755 15.1367 7.17205C16.4831 8.06662 17.4005 9.43197 17.72 11.0166L17.749 11.1611L17.748 11.1623C18.1778 13.3823 18.2111 15.629 17.8468 17.8429C17.8218 17.9947 17.6903 18.1025 17.5413 18.1025Z" fill="#F794A4"/>
<path fill-rule="evenodd" clip-rule="evenodd" d="M15.9045 23.2353C15.8589 23.2353 15.8127 23.2252 15.7689 23.2039C15.6151 23.1289 15.5511 22.9434 15.6261 22.7896C16.14 21.735 16.5537 20.6278 16.8558 19.4988C16.9001 19.3335 17.0699 19.2356 17.2353 19.2796C17.4006 19.3238 17.4987 19.4937 17.4546 19.6591C17.1422 20.8262 16.7145 21.9708 16.1832 23.061C16.1296 23.1712 16.0193 23.2353 15.9045 23.2353Z" fill="#F794A4"/>
<path fill-rule="evenodd" clip-rule="evenodd" d="M17.9002 22.2373C17.8634 22.2373 17.826 22.2307 17.7895 22.2168C17.6297 22.1556 17.5497 21.9765 17.6109 21.8166C18.9369 18.35 19.2555 14.5889 18.5336 10.9345L18.5175 10.8561C18.3199 9.87673 17.9238 8.97382 17.3403 8.17251C17.2396 8.03416 17.27 7.84033 17.4083 7.73958C17.5467 7.63883 17.7405 7.66932 17.8413 7.80767C18.4522 8.64658 18.8747 9.58733 19.0981 10.6056L19.0993 10.6064L19.1255 10.7339C19.8908 14.528 19.5672 18.4369 18.1897 22.038C18.1425 22.1614 18.0249 22.2373 17.9002 22.2373Z" fill="#F794A4"/>
<path fill-rule="evenodd" clip-rule="evenodd" d="M16.3372 6.9736C16.2682 6.9736 16.1987 6.95064 16.1411 6.90345C14.5394 5.59189 12.4581 5.074 10.4305 5.48266C9.90872 5.58776 9.401 5.75251 8.92139 5.97237C8.76581 6.04365 8.58187 5.97538 8.51056 5.8198C8.43925 5.66421 8.50755 5.48031 8.66314 5.40896C9.1861 5.16925 9.73955 4.98961 10.3081 4.8751C12.5184 4.42946 14.7876 4.9941 16.5338 6.42399C16.6662 6.53242 16.6856 6.72766 16.5772 6.86007C16.5159 6.93485 16.4269 6.9736 16.3372 6.9736Z" fill="#F794A4"/>
<path fill-rule="evenodd" clip-rule="evenodd" d="M2.72086 19.5592C2.63018 19.5592 2.54032 19.5196 2.47908 19.4434C2.37188 19.31 2.39318 19.1149 2.52656 19.0078C4.05495 17.7799 4.79724 15.8548 4.49882 13.9349L4.44996 13.6926C3.89789 10.9549 4.90288 8.15952 7.07263 6.39746C7.2055 6.28957 7.40063 6.30982 7.50852 6.44266C7.61641 6.57554 7.5962 6.77067 7.46332 6.87856C5.54492 8.4365 4.61916 10.8748 5.00816 13.2976L5.06288 13.5689C5.51218 15.7963 4.68906 18.0655 2.91476 19.4909C2.85751 19.5369 2.78895 19.5592 2.72086 19.5592Z" fill="#F794A4"/>
<path fill-rule="evenodd" clip-rule="evenodd" d="M1.91076 18.3693C1.82286 18.3693 1.73551 18.332 1.67419 18.2597C1.56355 18.1291 1.57967 17.9336 1.71026 17.8229C2.77647 16.9194 3.29226 15.5302 3.08213 14.1596L3.04501 13.9759C2.95175 13.514 2.89446 13.04 2.87479 12.5669C2.86766 12.3959 3.00053 12.2515 3.17151 12.2444C3.34249 12.2378 3.48688 12.3701 3.49402 12.5411C3.50854 12.89 3.54501 13.2395 3.60266 13.5833L3.65688 13.8524C3.98967 15.503 3.39728 17.2056 2.11096 18.2958C2.05272 18.3451 1.98156 18.3693 1.91076 18.3693Z" fill="#F794A4"/>
<path fill-rule="evenodd" clip-rule="evenodd" d="M20.4225 11.9358C20.2716 11.9358 20.1393 11.8253 20.1164 11.6714C20.069 11.3527 20.0143 11.0338 19.9536 10.7212L19.9226 10.5725C19.4845 8.39943 18.2265 6.52713 16.3802 5.30049C14.534 4.07385 12.3204 3.63966 10.1472 4.0778C8.47559 4.41483 6.97125 5.24164 5.7968 6.46883C4.6486 7.66859 3.89212 9.16396 3.60913 10.7933C3.57986 10.9619 3.41961 11.0749 3.2508 11.0455C3.08218 11.0163 2.96922 10.8559 2.99852 10.6872C3.30266 8.93619 4.11546 7.32932 5.34906 6.04032C6.61148 4.72114 8.22831 3.83244 10.0247 3.47024C12.3602 2.9994 14.7391 3.46608 16.7232 4.78431C18.6438 6.06031 19.972 7.98635 20.4821 10.2265L20.4851 10.2268L20.5317 10.4501C20.6064 10.8202 20.6729 11.2005 20.7295 11.5802C20.7546 11.7495 20.6378 11.9071 20.4686 11.9324C20.4531 11.9346 20.4377 11.9358 20.4225 11.9358Z" fill="#F794A4"/>
<path fill-rule="evenodd" clip-rule="evenodd" d="M19.9335 20.6063C19.9071 20.6063 19.8802 20.6029 19.8535 20.5957C19.6881 20.5516 19.5898 20.3818 19.634 20.2165C20.2227 18.0092 20.4482 15.7335 20.3044 13.4525C20.2936 13.2817 20.4233 13.1345 20.5941 13.1237C20.765 13.1125 20.9121 13.2427 20.9229 13.4135C21.0711 15.7615 20.8388 18.1041 20.2328 20.3762C20.1958 20.5148 20.0705 20.6063 19.9335 20.6063Z" fill="#F794A4"/>
<path fill-rule="evenodd" clip-rule="evenodd" d="M1.23389 17.0342C1.15849 17.0342 1.08294 17.0069 1.02326 16.9516C0.897771 16.8352 0.890346 16.6392 1.00674 16.5136C1.54336 15.9349 1.78452 15.1388 1.66255 14.3648L1.63991 14.2589C1.0933 11.5483 1.63502 8.78715 3.16523 6.4841C4.69543 4.18108 7.0309 2.61176 9.74149 2.06526C10.8799 1.83565 12.035 1.79744 13.1746 1.95161C13.3443 1.97454 13.4632 2.13063 13.4402 2.30027C13.4172 2.46983 13.2609 2.58884 13.0916 2.56577C12.0205 2.4209 10.9347 2.45686 9.86397 2.67282C7.31566 3.18658 5.12003 4.66195 3.68145 6.82706C2.2754 8.94321 1.75714 11.4709 2.21415 13.9633L2.25099 14.1357C2.45285 15.1374 2.15762 16.1839 1.46118 16.9351C1.40012 17.0009 1.31712 17.0342 1.23389 17.0342Z" fill="#F794A4"/>
<path fill-rule="evenodd" clip-rule="evenodd" d="M21.9167 17.9171C21.9039 17.9171 21.891 17.9164 21.878 17.9147C21.7082 17.8936 21.5877 17.7387 21.6088 17.5689C21.9019 15.2153 21.8212 12.8343 21.3694 10.4884L21.3274 10.2896C20.631 6.83434 18.1109 4.0185 14.7507 2.94099C14.5876 2.8887 14.4979 2.71421 14.5502 2.55124C14.6025 2.38826 14.777 2.29863 14.9398 2.35078C18.4194 3.46656 21.052 6.33517 21.8722 9.8775L21.8764 9.87685L21.9376 10.1667C22.4372 12.6426 22.5334 15.1588 22.2238 17.6455C22.2043 17.8023 22.0708 17.9171 21.9167 17.9171Z" fill="#F794A4"/>
</svg>
