<svg width="24" height="24" viewBox="0 0 24 24" fill="none" xmlns="http://www.w3.org/2000/svg">
<path fill-rule="evenodd" clip-rule="evenodd" d="M21.8895 0H17.9121C16.749 0 15.8029 0.94622 15.8029 2.10919C15.8029 2.94704 16.2939 3.67229 17.0032 4.01237L16.6474 4.36815C14.2461 3.22041 11.3604 3.68897 9.46008 5.58938C8.75794 6.29152 8.24142 7.1297 7.93448 8.04437C7.01512 8.3544 6.17386 8.87561 5.48268 9.56678C3.58232 11.4671 3.11381 14.3529 4.2614 16.7541L4.0971 16.9184L3.5999 16.4213C2.7756 15.5969 1.4413 15.5968 0.616864 16.4213C-0.205606 17.2437 -0.205606 18.5819 0.616864 19.4044L1.11402 19.9015L0.616817 20.3987C-0.205606 21.2211 -0.205606 22.5593 0.616817 23.3818C1.43929 24.2042 2.77743 24.2042 3.59985 23.3818L4.09706 22.8846L4.59426 23.3817C5.41856 24.2061 6.75286 24.2061 7.5773 23.3817C8.39977 22.5592 8.39977 21.2211 7.5773 20.3986L7.08014 19.9015L7.24444 19.7372C9.64561 20.8848 12.5314 20.4163 14.4318 18.5159C15.123 17.8247 15.6442 16.9834 15.9542 16.0641C16.8688 15.7572 17.707 15.2406 18.4092 14.5385C20.3096 12.6381 20.7781 9.75236 19.6304 7.35118L19.9852 6.99639C20.0872 7.20957 20.2259 7.40607 20.3979 7.5781C20.7962 7.9764 21.3259 8.19578 21.8894 8.19578C23.0524 8.19578 23.9986 7.24956 23.9986 6.08659V2.10919C23.9987 0.94622 23.0524 0 21.8895 0ZM16.4205 7.57812C15.0481 6.20571 12.8213 6.20562 11.4488 7.57812C10.0869 8.93998 10.0709 11.172 11.4488 12.5499C12.8211 13.9223 15.048 13.9224 16.4205 12.5499C17.7929 11.1775 17.7931 8.95062 16.4205 7.57812ZM12.4431 11.5555C11.8919 11.0043 11.7107 10.2215 11.8984 9.51752C12.4697 9.76314 12.9939 10.1176 13.4375 10.5612C13.8811 11.0049 14.2357 11.5293 14.4813 12.1008C13.7697 12.2898 12.9916 12.1041 12.4431 11.5555ZM14.4318 9.5668C14.9338 10.0688 15.3465 10.6519 15.6538 11.2858C16.2384 10.4657 16.1665 9.31292 15.4262 8.57253C14.6849 7.8312 13.5319 7.76093 12.7127 8.34486C13.3467 8.65217 13.9299 9.06481 14.4318 9.5668ZM9.46008 14.5386C8.95172 14.0302 8.54091 13.4505 8.23617 12.8221C7.6545 13.6394 7.72191 14.7891 8.46567 15.5329C9.20982 16.277 10.3595 16.3439 11.1766 15.7625C10.5482 15.4578 9.96844 15.0469 9.46008 14.5386ZM13.4375 17.5216C11.8599 19.0991 9.40659 19.4054 7.47145 18.2666C7.1954 18.1041 6.84426 18.1488 6.61767 18.3754L5.58862 19.4044C5.31417 19.6788 5.31407 20.1242 5.58862 20.3988L6.58298 21.3931C6.85715 21.6672 6.85715 22.1134 6.58298 22.3875C6.30825 22.6622 5.8634 22.6623 5.58862 22.3875L4.59426 21.3931C4.31971 21.1185 3.87449 21.1185 3.5999 21.3931L2.60554 22.3875C2.33137 22.6617 1.8853 22.6616 1.61118 22.3875C1.33705 22.1134 1.33705 21.6672 1.61118 21.3931L2.60554 20.3988C2.87999 20.1243 2.88008 19.6789 2.60554 19.4044L1.61118 18.41C1.33705 18.1359 1.33705 17.6898 1.61118 17.4157C1.88596 17.1409 2.33071 17.1408 2.60554 17.4157L3.5999 18.41C3.87445 18.6846 4.31966 18.6846 4.59426 18.41L5.62331 17.381C5.84985 17.1545 5.89462 16.8033 5.73211 16.5272C4.59318 14.592 4.89951 12.1387 6.47704 10.5611C6.81543 10.2227 7.20004 9.93699 7.61662 9.71133C7.5862 10.2691 7.62778 10.8064 7.7309 11.3207C7.64081 11.3945 7.55414 11.4728 7.4715 11.5554C6.09764 12.9293 6.0974 15.1532 7.4715 16.5272C8.84531 17.901 11.0692 17.9013 12.4432 16.5272C12.5259 16.4445 12.6041 16.3578 12.678 16.2677C13.1928 16.3709 13.7302 16.4124 14.2873 16.382C14.0616 16.7986 13.7759 17.1832 13.4375 17.5216ZM21.8895 6.78958C22.2771 6.78958 22.5925 6.4742 22.5925 6.08659H22.5924V2.1091C22.5924 1.72149 22.277 1.40611 21.8894 1.40611H17.912C17.5244 1.40611 17.209 1.72144 17.209 2.10905C17.209 2.49666 17.5243 2.81673 17.912 2.81673H18.4946C18.779 2.81673 19.0354 2.98337 19.1442 3.2461C19.253 3.50884 19.1929 3.81127 18.9918 4.01237L17.2742 5.72992C17.0476 5.95651 16.6964 6.00118 16.4204 5.83872C14.4741 4.69328 12.0226 5.01554 10.4543 6.5837C8.52999 8.50811 8.53172 11.6215 10.4543 13.5441C12.3779 15.4677 15.4911 15.4679 17.4148 13.5441C18.9925 11.9666 19.2988 9.51325 18.1598 7.57816C17.9972 7.30201 18.042 6.95092 18.2686 6.72433L19.9862 5.00673C20.1873 4.80568 20.4899 4.74554 20.7525 4.85434C21.0153 4.96318 21.1818 5.21954 21.1818 5.50393V6.08659C21.1818 6.47547 21.5007 6.78958 21.8895 6.78958Z" fill="#F794A4"/>
</svg>
