<svg width="40" height="40" viewBox="0 0 40 40" fill="none" xmlns="http://www.w3.org/2000/svg">
<circle cx="20" cy="20" r="20" fill="#F794A4"/>
<path fill-rule="evenodd" clip-rule="evenodd" d="M26.4404 14.2727H12.5596C12.3874 14.2727 12.2477 14.4152 12.2477 14.5909V25.4091C12.2477 25.5848 12.3874 25.7273 12.5596 25.7273H26.4404C26.6126 25.7273 26.7523 25.5848 26.7523 25.4091V14.5909C26.7523 14.4152 26.6126 14.2727 26.4404 14.2727ZM12.5596 13C11.6983 13 11 13.7123 11 14.5909V25.4091C11 26.2877 11.6983 27 12.5596 27H26.4404C27.3017 27 28 26.2877 28 25.4091V14.5909C28 13.7123 27.3017 13 26.4404 13H12.5596Z" fill="white"/>
<path fill-rule="evenodd" clip-rule="evenodd" d="M17.5991 16.7385C17.7966 16.9084 17.8217 17.2095 17.6551 17.411L15.8768 19.5623C15.7107 19.7631 15.4168 19.7893 15.2191 19.6209L13.8315 18.4387C13.6331 18.2697 13.6066 17.9687 13.7723 17.7664C13.9379 17.5641 14.233 17.5371 14.4313 17.706L15.4616 18.5838L16.9397 16.7957C17.1063 16.5942 17.4015 16.5686 17.5991 16.7385Z" fill="white"/>
<path fill-rule="evenodd" clip-rule="evenodd" d="M17.5991 20.7791C17.7966 20.949 17.8217 21.2501 17.6551 21.4516L15.8768 23.6029C15.7107 23.8037 15.4168 23.8299 15.2191 23.6615L13.8315 22.4793C13.6331 22.3103 13.6066 22.0093 13.7723 21.807C13.9379 21.6047 14.233 21.5777 14.4313 21.7466L15.4616 22.6244L16.9397 20.8363C17.1063 20.6348 17.4015 20.6092 17.5991 20.7791Z" fill="white"/>
<path fill-rule="evenodd" clip-rule="evenodd" d="M18.7982 17.9318C18.7982 17.6682 19.0076 17.4545 19.2661 17.4545H25.1927C25.4511 17.4545 25.6606 17.6682 25.6606 17.9318C25.6606 18.1954 25.4511 18.4091 25.1927 18.4091H19.2661C19.0076 18.4091 18.7982 18.1954 18.7982 17.9318Z" fill="white"/>
<path fill-rule="evenodd" clip-rule="evenodd" d="M18.7982 21.9091C18.7982 21.6455 19.0076 21.4318 19.2661 21.4318H25.1927C25.4511 21.4318 25.6606 21.6455 25.6606 21.9091C25.6606 22.1727 25.4511 22.3864 25.1927 22.3864H19.2661C19.0076 22.3864 18.7982 22.1727 18.7982 21.9091Z" fill="white"/>
</svg>
