<svg width="21" height="19" viewBox="0 0 21 19" fill="none" xmlns="http://www.w3.org/2000/svg">
    <path fill-rule="evenodd" clip-rule="evenodd" d="M18.1321 8.13076H18.1557C19.4796 8.13076 20.6113 9.20066 20.6113 10.5461C20.6113 11.8914 19.4799 12.9615 18.1557 12.9615H18.1219C17.8206 15.6751 15.5136 17.7923 12.721 17.7923H12.0133C11.7641 18.4951 11.0929 19 10.3056 19C9.51843 19 8.84724 18.4951 8.59797 17.7923H7.89026C5.09771 17.7923 2.79074 15.6751 2.48938 12.9615H2.45564C1.13169 12.9615 0 11.8917 0 10.5461C0 9.20094 1.13141 8.13076 2.45564 8.13076H2.47923C2.62758 6.21351 3.47824 4.40841 4.87103 3.07097V2.07772C4.87103 0.768421 6.06882 -0.216252 7.35537 0.0410673L10.3056 0.631106L13.256 0.0410673C14.5399 -0.215688 15.7403 0.765683 15.7403 2.07772V3.07101C17.133 4.40845 17.9837 6.21351 18.1321 8.13076ZM6.68257 10.5463C7.01606 10.5463 7.28642 10.2759 7.28642 9.94242C7.28642 9.60893 7.01606 9.33858 6.68257 9.33858C6.34907 9.33858 6.07872 9.60893 6.07872 9.94242C6.07872 10.2759 6.34907 10.5463 6.68257 10.5463ZM13.9287 10.5463C14.2622 10.5463 14.5326 10.2759 14.5326 9.94242C14.5326 9.60893 14.2622 9.33858 13.9287 9.33858C13.5952 9.33858 13.3249 9.60893 13.3249 9.94242C13.3249 10.2759 13.5952 10.5463 13.9287 10.5463ZM2.45564 11.7538C1.77917 11.7538 1.20769 11.2008 1.20769 10.5461C1.20769 9.8915 1.77917 9.33845 2.45564 9.33845V11.7538ZM13.4928 1.22529L11.7815 1.56759C11.9944 1.89536 12.1172 2.28432 12.1172 2.69618C12.1172 3.10805 11.9944 3.497 11.7815 3.82477L13.4928 4.16703C13.9987 4.26824 14.487 3.90943 14.5363 3.39902C14.5291 3.34024 14.5366 2.07772 14.5366 2.07772C14.5366 1.53969 14.0367 1.11652 13.4928 1.22529ZM10.3056 1.86907C10.6606 1.9832 10.9095 2.31632 10.9095 2.69614C10.9095 3.07596 10.6606 3.40904 10.3056 3.52321C9.95071 3.40908 9.7018 3.07596 9.7018 2.69614C9.7018 2.31636 9.95071 1.98324 10.3056 1.86907ZM7.11851 1.22529C6.57903 1.11736 6.07872 1.531 6.07872 2.07772V3.22225C6.08879 3.28074 6.09024 3.3402 6.08303 3.39885C6.1321 3.90826 6.61156 4.26847 7.11851 4.16699L8.82981 3.82473C8.61685 3.49696 8.49411 3.108 8.49411 2.69614C8.49411 2.28428 8.61685 1.89532 8.82981 1.56755L7.11851 1.22529ZM10.3056 17.7923C9.97269 17.7923 9.7018 17.5214 9.7018 17.1885C9.7018 16.8555 9.97269 16.5846 10.3056 16.5846C10.6386 16.5846 10.9095 16.8555 10.9095 17.1885C10.9095 17.5214 10.6386 17.7923 10.3056 17.7923ZM10.3056 15.3769C10.8941 15.3769 11.4178 15.6592 11.7489 16.0952C11.9831 15.8877 12.1172 15.6352 12.1172 15.3769C12.1172 14.7223 11.2876 14.1692 10.3056 14.1692C9.32367 14.1692 8.49411 14.7223 8.49411 15.3769C8.49411 15.6352 8.62824 15.8877 8.86242 16.0952C9.19352 15.6592 9.71718 15.3769 10.3056 15.3769ZM16.948 12.3577C16.948 14.6189 15.1632 16.4711 12.9283 16.5795C13.1837 16.2208 13.3249 15.8083 13.3249 15.3769C13.3249 14.1286 12.0955 12.9615 10.3056 12.9615C8.49801 12.9615 7.28642 14.1414 7.28642 15.3769C7.28642 15.8083 7.42764 16.2208 7.68302 16.5795C5.44819 16.4711 3.66334 14.6189 3.66334 12.3577V8.73461C3.66334 7.16513 4.22165 5.65382 5.21868 4.46481C5.68425 5.16326 6.52191 5.51792 7.35534 5.35126L10.3056 4.76122L13.256 5.35126C14.0928 5.51864 14.9292 5.16012 15.3926 4.46485C16.3896 5.65386 16.948 7.16513 16.948 8.73461V12.3577ZM19.4036 10.5461C19.4036 9.8915 18.8321 9.33845 18.1557 9.33845V11.7538C18.8321 11.7538 19.4036 11.2008 19.4036 10.5461Z" fill="#F794A4"/>
</svg>
