<svg width="19" height="19" viewBox="0 0 19 19" fill="none" xmlns="http://www.w3.org/2000/svg">
    <path fill-rule="evenodd" clip-rule="evenodd" d="M17.8496 8.34961V15.6607C18.5915 16.4171 19 17.4049 19 18.4434C19 18.7508 18.7508 19 18.4434 19H0.556641C0.249227 19 0 18.7508 0 18.4434C0 17.405 0.408537 16.4172 1.15039 15.6607V8.34961C1.15039 3.73439 4.88541 0 9.5 0C14.1152 0 17.8496 3.73506 17.8496 8.34961ZM7.83008 9.46289C7.83008 9.77032 7.58086 10.0195 7.27344 10.0195C6.96601 10.0195 6.7168 9.77032 6.7168 9.46289C6.7168 9.15547 6.96601 8.90625 7.27344 8.90625C7.58086 8.90625 7.83008 9.15547 7.83008 9.46289ZM11.3551 12.649C11.584 12.4438 11.936 12.4631 12.1411 12.6921C12.3463 12.9211 12.327 13.273 12.098 13.4782C11.3823 14.1194 10.4596 14.4727 9.5 14.4727C8.54038 14.4727 7.6177 14.1194 6.90201 13.4782C6.67304 13.273 6.65374 12.9211 6.85888 12.6921C7.06403 12.4631 7.41601 12.4439 7.6449 12.649C8.15612 13.1071 8.81496 13.3594 9.5 13.3594C10.185 13.3594 10.8439 13.1071 11.3551 12.649ZM11.7266 10.0195C12.034 10.0195 12.2832 9.77032 12.2832 9.46289C12.2832 9.15547 12.034 8.90625 11.7266 8.90625C11.4191 8.90625 11.1699 9.15547 11.1699 9.46289C11.1699 9.77032 11.4191 10.0195 11.7266 10.0195ZM15.623 10.0195V8.34961V7.79297C16.2369 7.79297 16.7363 8.29239 16.7363 8.90625C16.7363 9.52011 16.2369 10.0195 15.623 10.0195ZM16.7363 14.8563V10.8333C16.4085 11.0234 16.0285 11.1328 15.623 11.1328H15.5975C15.4832 12.3948 14.9848 13.5477 14.2198 14.4727H15.0664C15.6508 14.4727 16.2182 14.6051 16.7363 14.8563ZM13.221 2.14555C14.9287 3.17367 16.1797 4.88638 16.5906 6.90119C16.2978 6.75933 15.9696 6.67969 15.6231 6.67969H15.3905C14.9948 5.28408 14.1107 4.05973 12.8799 3.2441C13.0222 2.88867 13.1366 2.5214 13.221 2.14555ZM14.5098 10.5762V8.34961C14.5098 6.70815 13.7065 5.18429 12.382 4.25173C11.068 6.46122 8.70003 7.79297 6.16016 7.79297H4.52122C4.50085 7.97737 4.49023 8.16339 4.49023 8.34961V10.5762C4.49023 13.3386 6.73762 15.5859 9.5 15.5859C12.2624 15.5859 14.5098 13.3386 14.5098 10.5762ZM9.5 1.11328C10.4498 1.11328 11.3573 1.29757 12.189 1.63166C11.6724 4.56007 9.15696 6.67969 6.16016 6.67969H3.37695C3.03043 6.67969 2.70216 6.75932 2.4094 6.90119C3.08216 3.60276 6.00578 1.11328 9.5 1.11328ZM3.37695 8.34961V7.79297C2.76309 7.79297 2.26367 8.29239 2.26367 8.90625C2.26367 9.52011 2.76309 10.0195 3.37695 10.0195V8.34961ZM2.26367 10.8333C2.59146 11.0234 2.97153 11.1328 3.37695 11.1328H3.40252C3.51682 12.3948 4.01523 13.5477 4.78021 14.4727H3.93359C3.34916 14.4727 2.78179 14.6051 2.26367 14.8563V10.8333ZM3.9336 15.5859C2.59221 15.5859 1.43343 16.5934 1.16954 17.8867H17.8305C17.5666 16.5934 16.4078 15.5859 15.0664 15.5859H13.0164C12.0207 16.287 10.8076 16.6992 9.5 16.6992C8.19238 16.6992 6.97935 16.287 5.98359 15.5859H3.9336Z" fill="#F794A4"/>
</svg>
