<svg width="19" height="19" viewBox="0 0 19 19" fill="none" xmlns="http://www.w3.org/2000/svg">
    <path fill-rule="evenodd" clip-rule="evenodd" d="M15.1035 14.4727H14.2198C14.9848 13.5477 15.4832 12.3948 15.5975 11.1328H15.623C16.8508 11.1328 17.8496 10.134 17.8496 8.90625C17.8496 7.67852 16.8508 6.67969 15.623 6.67969V5.00977C15.623 2.24738 13.3757 0 10.6133 0H2.82031C2.5129 0 2.26367 0.249227 2.26367 0.556641C2.26367 1.74685 2.68112 2.84121 3.37695 3.70162V6.67969C2.14923 6.67969 1.15039 7.67852 1.15039 8.90625C1.15039 10.134 2.14923 11.1328 3.37695 11.1328H3.40252C3.51682 12.3948 4.01523 13.5477 4.78021 14.4727H3.89648C1.7211 14.4727 0 16.3124 0 18.4434C0 18.7508 0.249227 19 0.556641 19H18.4434C18.7508 19 19 18.7508 19 18.4434C19 16.3105 17.277 14.4727 15.1035 14.4727ZM12.1411 12.6921C11.936 12.4631 11.584 12.4439 11.3551 12.649C10.8439 13.1071 10.1851 13.3594 9.5 13.3594C8.81492 13.3594 8.15612 13.1071 7.6449 12.649C7.41605 12.4439 7.06403 12.4632 6.85889 12.6921C6.65371 12.9211 6.67301 13.273 6.90197 13.4782C7.61766 14.1195 8.54035 14.4727 9.5 14.4727C10.4596 14.4727 11.3823 14.1195 12.098 13.4782C12.327 13.273 12.3463 12.9211 12.1411 12.6921ZM16.7363 8.90625C16.7363 8.29239 16.2369 7.79297 15.623 7.79297V10.0195C16.2369 10.0195 16.7363 9.52011 16.7363 8.90625ZM3.37695 10.0195C2.76309 10.0195 2.26367 9.52011 2.26367 8.90625C2.26367 8.29239 2.76309 7.79297 3.37695 7.79297V10.0195ZM14.4701 4.45312C14.1992 2.56734 12.5728 1.11328 10.6133 1.11328H3.41659C3.68752 2.99907 5.31388 4.45312 7.27344 4.45312H14.4701ZM4.49023 10.5762V4.72008C5.28682 5.25435 6.24432 5.5664 7.27344 5.5664H14.5098V10.5762C14.5098 13.3386 12.2624 15.5859 9.5 15.5859C6.73762 15.5859 4.49023 13.3386 4.49023 10.5762ZM3.89648 15.5859C2.57272 15.5859 1.42923 16.5934 1.1688 17.8867H17.8312C17.5708 16.5934 16.4273 15.5859 15.1035 15.5859H13.0164C12.0207 16.287 10.8076 16.6992 9.5 16.6992C8.19238 16.6992 6.97934 16.287 5.98359 15.5859H3.89648ZM7.27344 8.90625C7.58086 8.90625 7.83008 8.65703 7.83008 8.34961C7.83008 8.04218 7.58086 7.79297 7.27344 7.79297C6.96601 7.79297 6.7168 8.04218 6.7168 8.34961C6.7168 8.65703 6.96601 8.90625 7.27344 8.90625ZM12.2832 8.34961C12.2832 8.65703 12.034 8.90625 11.7266 8.90625C11.4191 8.90625 11.1699 8.65703 11.1699 8.34961C11.1699 8.04218 11.4191 7.79297 11.7266 7.79297C12.034 7.79297 12.2832 8.04218 12.2832 8.34961ZM8.88458 10.3272C8.74712 10.0522 8.41277 9.94075 8.13779 10.0783L7.02451 10.6349C6.74953 10.7724 6.63809 11.1068 6.77558 11.3817C6.91307 11.6568 7.24746 11.7682 7.52237 11.6307L8.63565 11.074C8.91063 10.9365 9.02207 10.6022 8.88458 10.3272ZM10.8622 10.0783L11.9755 10.635C12.2505 10.7725 12.3619 11.1068 12.2244 11.3818C12.0872 11.6562 11.7531 11.7685 11.4776 11.6307L10.3644 11.0741C10.0894 10.9365 9.97793 10.6022 10.1154 10.3272C10.2529 10.0523 10.5874 9.94087 10.8622 10.0783Z" fill="#F794A4"/>
</svg>
