<svg width="189" height="247" viewBox="0 0 189 247" fill="none" xmlns="http://www.w3.org/2000/svg">
    <g clip-path="url(#clip0)">
        <path opacity="0.18" d="M9.1566 228.983C10.0003 229.993 10.9017 230.954 11.8561 231.861C21.639 241.215 35.9211 243.805 49.3753 245.187C75.6705 247.876 102.188 247.521 128.402 244.129H126.696C128.366 243.92 130.036 243.604 131.684 243.251C142.734 240.933 153.194 236.384 162.423 229.882C166.722 226.815 170.653 223.261 174.135 219.291C185.005 206.865 190.958 189.797 188.431 173.464C186.329 159.721 178.684 147.446 175.294 133.969C168.419 106.584 179.613 76.7089 170.975 49.7841C168.937 43.4235 165.842 37.4514 162.761 31.5152C160.832 27.8097 158.859 24.0321 155.85 21.1252C152.474 17.8658 148.04 15.9518 143.721 14.1026C126.905 6.90734 109.455 -0.367104 91.1706 -0.0145351C81.0565 0.172543 71.0864 2.74126 61.721 6.55477C54.9615 9.31056 48.4035 12.7715 42.9254 17.6067C30.6877 28.3997 25.0584 44.9489 23.5826 61.1886C22.1069 77.4284 24.3025 93.7042 25.1807 109.958C25.6846 119.233 25.735 128.666 23.2875 137.639C20.5232 147.777 14.7139 156.757 9.94125 166.11C4.58546 176.594 0.410263 187.934 -0.00724792 199.698C-0.338394 210.16 2.55545 220.996 9.1566 228.983Z" fill="#F99D9D"/>
        <path opacity="0.54" d="M9.15685 228.983C10.0006 229.993 10.9019 230.954 11.8563 231.861C20.8978 240.495 33.7977 243.374 46.3233 244.849C47.3456 244.971 48.3606 245.079 49.3756 245.187C75.6707 247.876 102.188 247.521 128.402 244.129H126.696C128.366 243.92 130.036 243.604 131.685 243.251C132.318 243.114 132.952 242.971 133.578 242.82C143.938 240.402 153.733 236.004 162.423 229.868C144.131 223.968 115.92 220.183 84.2817 220.183C54.321 220.233 27.4486 223.615 9.15685 228.983Z" fill="#F99D9D"/>
        <path opacity="0.54" d="M46.2654 244.345C46.2549 244.522 46.2549 244.7 46.2654 244.878C47.2876 245 48.3026 245.108 49.3176 245.216C75.6128 247.905 102.131 247.55 128.344 244.158H126.638C128.308 243.949 129.978 243.633 131.627 243.28C132.26 243.143 132.894 243 133.52 242.848C131.252 235.61 112.644 229.976 89.9971 229.976C65.8889 229.976 46.2654 236.409 46.2654 244.345Z" fill="#F99D9D"/>
        <path d="M108.714 30.8751L114.991 23.5359C114.991 23.5359 113.263 16.4701 101.983 13.7287C99.7591 13.1974 97.4619 13.0441 95.1873 13.2754C92.0002 13.5468 88.8721 14.2964 85.9083 15.4987L86.0018 23.91C86.0018 23.91 106.547 25.0469 108.714 30.8751Z" fill="#F99D9D"/>
        <path d="M108.714 30.8751L114.991 23.5359C114.991 23.5359 113.263 16.4701 101.983 13.7287C99.7591 13.1974 97.4619 13.0441 95.1873 13.2754C92.0002 13.5468 88.8721 14.2964 85.9083 15.4987L86.0018 23.91C86.0018 23.91 106.547 25.0469 108.714 30.8751Z" fill="url(#paint0_linear)"/>
        <path d="M108.714 30.875C110.528 29.5367 114.213 29.9972 116.042 30.7311C117.36 31.2682 118.537 32.101 119.482 33.1653C120.427 34.2295 121.114 35.4966 121.491 36.8687C121.818 38.1535 121.913 39.4863 121.772 40.8045C121.506 43.6826 120.253 46.6471 117.892 48.3739C112.954 51.9716 109.909 48.633 108.44 44.1359C107.511 41.5875 107.212 38.8523 107.569 36.1635C107.835 34.1344 106.907 32.5227 108.483 31.0693L108.714 30.875Z" fill="#C47331"/>
        <path d="M98.362 56.2526C90.7963 56.2526 84.6631 48.6049 84.6631 39.171C84.6631 29.7371 90.7963 22.0894 98.362 22.0894C105.928 22.0894 112.061 29.7371 112.061 39.171C112.061 48.6049 105.928 56.2526 98.362 56.2526Z" fill="#C47331"/>
        <path d="M84.0367 35.7101C83.9082 38.1893 83.9346 40.6742 84.1159 43.1501C84.2808 44.677 84.0882 46.2213 83.5535 47.6611C83.0188 49.1009 82.1566 50.3967 81.0349 51.4462C81.7373 51.5294 82.4482 51.5076 83.1441 51.3815C83.4931 51.3169 83.823 51.1747 84.1096 50.9655C84.3962 50.7562 84.6321 50.4853 84.7998 50.1727C84.4679 50.7562 84.0102 51.2585 83.4598 51.6431C82.9095 52.0277 82.2803 52.2849 81.618 52.396C83.0577 53.022 86.8802 54.3603 87.1394 51.9211C87.2329 50.9858 86.8442 49.8993 86.7722 48.9639C86.6714 47.6903 86.6498 46.4023 86.5851 45.1288L86.0956 34.8755" fill="#C47331"/>
        <path d="M54.9038 86.2861C54.9038 86.2861 52.3915 81.8538 51.3045 81.1918C50.3327 80.5946 48.2883 78.7023 47.7052 79.1196C46.6974 79.8391 51.0597 83.7318 47.1653 83.4368C46.5534 83.3864 43.4292 83.4368 41.9247 84.8758C41.6266 85.1555 41.3916 85.4954 41.2352 85.8729C41.0787 86.2504 41.0045 86.6569 41.0174 87.0653C41.0304 87.4737 41.1302 87.8747 41.3102 88.2416C41.4902 88.6084 41.7463 88.9328 42.0615 89.193C43.0837 89.9125 46.5894 90.2076 48.4826 90.15C50.3759 90.0924 52.593 90.3659 53.8888 91.1429" fill="#F6C8C9"/>
        <path d="M81.7333 67.4629C81.7333 67.4629 79.9337 73.1112 79.7537 76.162C79.5738 79.2128 78.1484 92.0492 77.6661 92.7112C77.1838 93.3731 54.1626 85.5159 54.1626 85.5159C54.1626 85.5159 52.7733 87.473 53.889 91.1642C53.889 91.1642 70.9786 106.627 81.323 107.231C91.6674 107.836 90.3429 83.3429 90.3429 83.3429" fill="#F6C8C9"/>
        <path d="M71.7558 92.0495C71.6655 92.2505 71.6453 92.476 71.6982 92.6898C71.7645 92.8348 71.8659 92.961 71.9934 93.0568L75.9454 96.6113C76.3857 97.09 76.9561 97.43 77.5867 97.5898C77.9367 97.6195 78.2889 97.5658 78.6142 97.4332C78.9395 97.3007 79.2288 97.093 79.4583 96.8271C79.915 96.2964 80.2843 95.6965 80.5525 95.0499C81.2588 93.6594 81.8557 92.2159 82.3378 90.7327C82.9582 88.4691 83.2539 86.1288 83.216 83.7821C83.216 81.0623 83.0936 78.3496 82.9065 75.637C82.8928 74.7275 82.7423 73.8252 82.4602 72.9604C82.2429 72.2903 81.8069 71.7126 81.222 71.3198C80.3869 70.9097 80.2358 71.399 79.8183 72.1185C78.94 73.6367 78.1482 75.1909 77.4139 76.7739C75.9807 79.914 74.7143 83.1275 73.6202 86.4012C72.9868 88.2863 72.3677 90.1643 71.7558 92.0495Z" fill="#F99D9D"/>
        <path d="M71.8854 91.5384C71.7969 91.7371 71.7742 91.959 71.8206 92.1715C71.8881 92.3178 71.9922 92.4442 72.123 92.5385L76.075 96.1002C76.5153 96.5788 77.0857 96.9189 77.7163 97.0787C78.0661 97.1061 78.4175 97.0513 78.7425 96.9189C79.0674 96.7865 79.3569 96.5801 79.5879 96.316C80.043 95.7842 80.4122 95.1845 80.6821 94.5388C81.3854 93.1468 81.9822 91.7036 82.4674 90.2216C83.0884 87.9582 83.3818 85.6175 83.3384 83.271C83.3744 80.5511 83.2232 77.8313 83.0361 75.1187C83.0218 74.2116 82.8713 73.3117 82.5898 72.4492C82.3725 71.7792 81.9365 71.2015 81.3516 70.8087C80.5166 70.3914 80.3654 70.8879 79.9119 71.6074C79.0336 73.1184 78.2418 74.6798 77.5003 76.2627C76.0791 79.3963 74.8177 82.6 73.721 85.8613C73.1164 87.768 72.4973 89.6532 71.8854 91.5384Z" fill="url(#paint1_linear)"/>
        <path d="M101.976 228.659L94.9715 239.661C96.0945 239.28 106.583 236.92 109.016 236.927C110.611 236.86 112.145 236.299 113.407 235.322L111.881 227.53L109.167 188.992L94.5756 191.107L101.976 228.659Z" fill="#F6C8C9"/>
        <path d="M73.8435 228.364L67.2568 238.272C68.4373 238.179 76.363 236.43 78.717 237.049C80.2798 237.38 81.9069 237.219 83.3745 236.589L83.8352 228.674L86.8154 192.999L74.2682 186.891L73.8435 228.364Z" fill="#F6C8C9"/>
        <path d="M103.71 50.5615L104.301 62.9662C103.649 63.9119 102.758 64.6675 101.718 65.1556C100.679 65.6436 99.5276 65.8466 98.3835 65.7436C92.4014 65.0744 92.6246 63.2972 92.6246 63.2972C92.6246 63.2972 92.6246 54.3391 92.3799 52.3388" fill="#F6C8C9"/>
        <path d="M102.285 54.5978L103.667 52.1011L92.416 53.3459C92.5096 54.1086 92.5672 55.8858 92.6032 57.7997C94.3513 58.3141 96.2148 58.2831 97.9448 57.711C99.6749 57.1389 101.189 56.0528 102.285 54.5978Z" fill="#DCB5B0"/>
        <path d="M67.4224 187.387C74.9521 197.309 95.785 195.77 107.346 194.719C109.304 194.539 112.14 194.719 113.976 193.999C118.331 192.287 115.97 190.272 115.221 185.984C113.695 177.191 115.279 168.19 115.704 159.361C115.869 155.728 114.213 142.323 113.076 134.127C112.543 130.292 112.126 127.594 112.061 127.558C109.29 126.069 102.314 131.357 99.2043 131.221C97.8726 131.156 84.9006 129.371 79.2569 128.652C78.4562 130.547 77.5328 132.388 76.4926 134.163C76.3502 134.37 76.2227 134.586 76.1111 134.811C75.9743 136.3 75.8232 137.977 75.6576 139.783C73.9227 158.814 67.4224 187.387 67.4224 187.387Z" fill="#F99D9D"/>
        <path d="M67.4222 187.387C74.4409 196.633 93.0134 195.921 104.855 194.935L107.339 194.719C109.297 194.539 112.133 194.719 113.969 194C118.324 192.287 115.963 190.272 115.214 185.984C113.688 177.191 115.272 168.19 115.696 159.361C115.862 155.728 114.206 142.323 113.069 134.127C112.536 130.292 112.119 127.594 112.054 127.558C111.183 127.083 109.894 127.292 108.454 127.781C105.287 128.861 101.342 131.314 99.2114 131.221C97.8796 131.156 84.9077 129.371 79.264 128.652C78.467 130.545 77.546 132.384 76.5069 134.156C76.3644 134.363 76.2369 134.579 76.1254 134.804C75.9886 136.293 75.8374 137.97 75.6719 139.776C73.9226 158.815 67.4222 187.387 67.4222 187.387Z" fill="url(#paint2_linear)"/>
        <path d="M76.4998 134.192C76.4998 134.192 81.0925 146.345 93.9781 147.655C102.58 148.54 111.622 136.243 113.083 134.156L113.292 133.854V131.991L112.572 88.8835L112.176 65.3405C112.176 65.3405 110.557 65.4125 104.099 64.2253C98.0381 63.1172 95.7849 63.6712 91.401 64.5059C83.4105 66.0241 82.5034 66.5206 81.3229 67.5567C79.2569 69.3411 74.1242 90.1067 81.3661 107.196C84.3247 114.276 76.4998 134.192 76.4998 134.192Z" fill="#F99D9D"/>
        <path d="M76.4998 134.192C76.4998 134.192 81.0925 146.345 93.9781 147.655C98.8011 148.151 103.754 144.51 107.44 140.841C109.501 138.771 111.388 136.535 113.083 134.156L113.292 133.854V131.991L113.04 117.017L112.579 88.8835L112.183 65.3405C112.183 65.3405 110.564 65.4125 104.107 64.2253C98.0453 63.1172 95.7921 63.6712 91.4082 64.5059C83.4177 66.0241 82.5107 66.5206 81.3301 67.5567C79.2641 69.3411 74.1314 90.1067 81.3733 107.196C84.3391 114.182 76.7518 133.674 76.5502 134.185L76.4998 134.192Z" fill="url(#paint3_linear)"/>
        <path d="M104.862 194.935L107.346 194.719C109.304 194.539 112.14 194.719 113.976 193.999C118.331 192.287 115.97 190.272 115.221 185.984C113.695 177.191 115.279 168.19 115.704 159.361C115.869 155.728 114.213 142.323 113.076 134.127L113.285 133.825V131.962L113.033 116.988L109.21 119.629L108.491 127.781L107.375 139.646C107.375 139.646 107.375 140.071 107.432 140.819C107.713 146.964 108.872 175.407 106.353 180.436C104.272 184.624 104.574 191.575 104.862 194.935Z" fill="url(#paint4_linear)"/>
        <path d="M92.0848 108.275L86.7722 90.7684C86.6199 90.2663 86.3073 89.8278 85.8823 89.5198C85.4572 89.2119 84.943 89.0515 84.4182 89.0631L70.4961 89.1854C70.1184 89.1889 69.7468 89.281 69.4112 89.4543C69.0756 89.6277 68.7855 89.8774 68.5642 90.1833C68.3428 90.4892 68.1965 90.8429 68.137 91.2157C68.0774 91.5885 68.1063 91.9701 68.2213 92.3298L76.7661 118.952C76.9249 119.45 77.241 119.882 77.6668 120.184C78.0926 120.487 78.6051 120.643 79.1272 120.629L92.4879 120.255C92.8576 120.244 93.2198 120.148 93.5465 119.975C93.8733 119.802 94.1558 119.556 94.3722 119.256C94.5886 118.956 94.7331 118.61 94.7946 118.246C94.8561 117.881 94.8328 117.508 94.7267 117.154L92.0848 108.275Z" fill="#F99D9D"/>
        <path d="M92.0848 108.275L86.7722 90.7684C86.6199 90.2663 86.3073 89.8278 85.8823 89.5198C85.4572 89.2119 84.943 89.0515 84.4182 89.0631L70.4961 89.1854C70.1184 89.1889 69.7468 89.281 69.4112 89.4543C69.0756 89.6277 68.7855 89.8774 68.5642 90.1833C68.3428 90.4892 68.1965 90.8429 68.137 91.2157C68.0774 91.5885 68.1063 91.9701 68.2213 92.3298L76.7661 118.952C76.9249 119.45 77.241 119.882 77.6668 120.184C78.0926 120.487 78.6051 120.643 79.1272 120.629L92.4879 120.255C92.8576 120.244 93.2198 120.148 93.5465 119.975C93.8733 119.802 94.1558 119.556 94.3722 119.256C94.5886 118.956 94.7331 118.61 94.7946 118.246C94.8561 117.881 94.8328 117.508 94.7267 117.154L92.0848 108.275Z" fill="url(#paint5_linear)"/>
        <path d="M90.242 108.203L85.0878 90.7756C84.9636 90.2946 84.6853 89.8674 84.2953 89.5595C83.9053 89.2515 83.4251 89.0797 82.9282 89.0703L70.345 89.1998C69.9872 89.2287 69.6408 89.3399 69.3332 89.5249C69.0256 89.7099 68.7649 89.9635 68.5718 90.266C68.3786 90.5685 68.2582 90.9116 68.2199 91.2684C68.1816 91.6252 68.2264 91.986 68.351 92.3226L76.6438 118.852C76.7738 119.326 77.055 119.745 77.4448 120.045C77.8345 120.345 78.3115 120.509 78.8034 120.514L90.8971 120.14C91.2481 120.105 91.5866 119.992 91.887 119.807C92.1873 119.623 92.4416 119.372 92.6304 119.074C92.8192 118.777 92.9376 118.44 92.9765 118.089C93.0155 117.739 92.974 117.385 92.8551 117.053L90.242 108.203Z" fill="url(#paint6_linear)"/>
        <path d="M108.39 30.4722C108.39 30.4722 107.893 46.3594 103.271 51.7918C98.398 57.548 95.6193 58.2676 89.7092 55.8859C84.6702 53.8856 84.0799 40.121 83.9071 36.1636C83.468 25.8816 99.2402 17.0242 108.39 30.4722Z" fill="#F6C8C9"/>
        <path d="M103.912 84.6457L113.256 131.991L112.543 88.8909L112.061 77.623L103.912 84.6457Z" fill="url(#paint7_linear)"/>
        <path d="M106.554 40.5596C106.554 40.5596 106.813 38.1708 109.167 39.1997C111.521 40.2286 109.311 44.4091 108.39 45.5388C107.468 46.6684 105.712 46.3231 105.712 46.3231" fill="#F6C8C9"/>
        <path d="M84.1951 25.4999C83.3596 26.4194 82.7216 27.5004 82.3204 28.6761C81.9193 29.8518 81.7635 31.0972 81.8628 32.3354C82.1723 35.4078 84.3391 37.7031 87.5569 37.3001C87.5569 37.3001 85.9444 34.0766 88.0104 32.5081C88.0104 32.5081 88.5719 36.2712 92.416 36.6166L94.8923 36.4439C94.8923 36.4439 94.0285 33.0045 94.8923 32.0548C95.7561 31.105 96.9511 36.8684 99.2115 37.3433C100.144 37.5675 101.097 37.6977 102.055 37.7318C102.559 37.8182 104.294 34.681 104.322 34.6379C104.181 35.2078 104.103 35.7919 104.092 36.3791C103.923 37.3685 103.827 38.3689 103.804 39.3724C103.732 41.8188 103.725 44.2652 103.804 46.7116C103.855 48.5176 103.963 50.3884 104.812 51.9857C105.661 53.5831 107.447 54.8207 109.218 54.4537C107.72 53.5687 107.094 51.7123 106.943 49.9782C106.774 47.7348 106.929 45.4787 107.404 43.2794C107.727 41.5094 107.504 39.0414 108.419 37.4296C111.204 32.5225 108.462 26.4208 103.703 24.0824C98.5348 21.5352 91.0626 20.4847 86.0308 23.9097C85.3549 24.3611 84.7382 24.8953 84.1951 25.4999Z" fill="#C47331"/>
        <path d="M112.147 65.873C112.147 65.873 114.976 69.78 120.008 85.6241C121.88 91.5026 125.429 104.663 125.429 104.663C125.429 104.663 117.985 107.203 112.73 107.203C110.376 93.5677 104.725 88.2863 103.667 82.0192C102.609 75.7521 108.994 64.6642 112.147 65.873Z" fill="#F99D9D"/>
        <path d="M112.147 65.873C112.147 65.873 114.976 69.78 120.008 85.6241C121.88 91.5026 125.429 104.663 125.429 104.663C125.429 104.663 117.985 107.203 112.73 107.203C110.376 93.5677 104.725 88.2863 103.667 82.0192C102.609 75.7521 108.994 64.6642 112.147 65.873Z" fill="url(#paint8_linear)"/>
        <path d="M107.159 61.4696L107.266 64.3478C107.274 64.5793 107.215 64.8081 107.098 65.008C106.981 65.2078 106.81 65.3705 106.604 65.4774C106.604 65.4774 102.04 67.0172 94.1506 67.4345L88.3485 65.9955C88.1461 65.9038 87.9723 65.7591 87.8456 65.5766C87.7189 65.3942 87.6439 65.1809 87.6286 64.9594L87.5495 63.5203C87.5309 63.2092 87.6326 62.9028 87.8336 62.6645C88.0345 62.4261 88.3193 62.274 88.6292 62.2395L105.798 60.2968C105.966 60.2779 106.135 60.2938 106.297 60.3435C106.458 60.3933 106.607 60.4758 106.735 60.586C106.862 60.6961 106.966 60.8315 107.039 60.9835C107.112 61.1356 107.153 61.3011 107.159 61.4696Z" fill="#F99D9D"/>
        <path d="M107.159 61.4696L107.266 64.3478C107.274 64.5793 107.215 64.8081 107.098 65.008C106.981 65.2078 106.81 65.3705 106.604 65.4774C106.604 65.4774 102.04 67.0172 94.1506 67.4345L88.3485 65.9955C88.1461 65.9038 87.9723 65.7591 87.8456 65.5766C87.7189 65.3942 87.6439 65.1809 87.6286 64.9594L87.5495 63.5203C87.5309 63.2092 87.6326 62.9028 87.8336 62.6645C88.0345 62.4261 88.3193 62.274 88.6292 62.2395L105.798 60.2968C105.966 60.2779 106.135 60.2938 106.297 60.3435C106.458 60.3933 106.607 60.4758 106.735 60.586C106.862 60.6961 106.966 60.8315 107.039 60.9835C107.112 61.1356 107.153 61.3011 107.159 61.4696Z" fill="url(#paint9_linear)"/>
        <path d="M98.7436 233.725C99.0267 233.548 99.3531 233.454 99.6867 233.451C100.03 233.512 100.351 233.663 100.615 233.89C102.365 235.128 104.287 236.236 106.417 236.459C108.548 236.682 110.902 235.797 111.874 233.89C112.09 233.459 112.284 232.948 112.731 232.775C112.971 232.711 113.227 232.731 113.454 232.832C113.682 232.933 113.869 233.108 113.983 233.329C114.2 233.777 114.311 234.27 114.307 234.768L114.422 236.639C114.625 237.927 114.471 239.246 113.976 240.452C113.371 241.604 111.816 242.366 110.729 241.69C110.096 241.294 109.75 240.539 109.102 240.179C108.75 240.022 108.366 239.952 107.981 239.976C107.596 240 107.223 240.116 106.893 240.316C106.238 240.718 105.617 241.173 105.035 241.676C101.904 244.021 97.6711 244.057 93.7622 244C92.8412 244.061 91.9193 243.895 91.0771 243.518C90.5776 243.236 90.1737 242.811 89.9172 242.298C89.6607 241.786 89.5633 241.208 89.6374 240.639C89.9037 238.92 91.8618 238.121 93.1287 237.2C94.8986 235.885 96.777 234.722 98.7436 233.725Z" fill="#3F3D56"/>
        <path d="M68.9698 233.977C69.2508 233.777 69.5942 233.684 69.9377 233.716C70.2812 233.747 70.602 233.901 70.8415 234.149C72.5907 235.38 74.5128 236.495 76.6436 236.718C78.7744 236.941 81.1283 236.049 82.1001 234.149C82.3161 233.718 82.5105 233.2 82.9568 233.027C83.1975 232.966 83.4518 232.987 83.6789 233.087C83.906 233.188 84.0928 233.362 84.2093 233.581C84.4257 234.03 84.5365 234.522 84.5333 235.02L84.6485 236.884C84.8523 238.174 84.6979 239.496 84.2021 240.704C83.5975 241.856 82.0426 242.618 80.9556 241.935C80.3221 241.546 79.9765 240.783 79.3287 240.431C78.977 240.272 78.5919 240.201 78.2067 240.225C77.8215 240.249 77.448 240.367 77.1187 240.568C76.464 240.97 75.8429 241.425 75.2614 241.928C72.13 244.273 67.8972 244.309 63.9884 244.252C63.0674 244.312 62.1455 244.147 61.3033 243.769C60.8038 243.488 60.3999 243.063 60.1434 242.55C59.8869 242.038 59.7895 241.46 59.8636 240.891C60.1299 239.165 62.088 238.373 63.3549 237.445C65.1286 236.137 67.0065 234.977 68.9698 233.977Z" fill="#3F3D56"/>
        <path d="M98.7436 233.725C99.0267 233.548 99.3531 233.454 99.6867 233.451C100.03 233.512 100.351 233.663 100.615 233.89C102.365 235.128 104.287 236.236 106.417 236.459C108.548 236.682 110.902 235.797 111.874 233.89C112.09 233.459 112.284 232.948 112.731 232.775C112.971 232.711 113.227 232.731 113.454 232.832C113.682 232.933 113.869 233.108 113.983 233.329C114.2 233.777 114.311 234.27 114.307 234.768L114.422 236.639C114.625 237.927 114.471 239.246 113.976 240.452C113.371 241.604 111.816 242.366 110.729 241.69C110.096 241.294 109.75 240.539 109.102 240.179C108.75 240.022 108.366 239.952 107.981 239.976C107.596 240 107.223 240.116 106.893 240.316C106.238 240.718 105.617 241.173 105.035 241.676C101.904 244.021 97.6711 244.057 93.7622 244C92.8412 244.061 91.9193 243.895 91.0771 243.518C90.5776 243.236 90.1737 242.811 89.9172 242.298C89.6607 241.786 89.5633 241.208 89.6374 240.639C89.9037 238.92 91.8618 238.121 93.1287 237.2C94.8986 235.885 96.777 234.722 98.7436 233.725Z" fill="url(#paint10_linear)"/>
        <path d="M68.9698 233.977C69.2508 233.777 69.5942 233.684 69.9377 233.716C70.2812 233.747 70.602 233.901 70.8415 234.149C72.5907 235.38 74.5128 236.495 76.6436 236.718C78.7744 236.941 81.1283 236.049 82.1001 234.149C82.3161 233.718 82.5105 233.2 82.9568 233.027C83.1975 232.966 83.4518 232.987 83.6789 233.087C83.906 233.188 84.0928 233.362 84.2093 233.581C84.4257 234.03 84.5365 234.522 84.5333 235.02L84.6485 236.884C84.8523 238.174 84.6979 239.496 84.2021 240.704C83.5975 241.856 82.0426 242.618 80.9556 241.935C80.3221 241.546 79.9765 240.783 79.3287 240.431C78.977 240.272 78.5919 240.201 78.2067 240.225C77.8215 240.249 77.448 240.367 77.1187 240.568C76.464 240.97 75.8429 241.425 75.2614 241.928C72.13 244.273 67.8972 244.309 63.9884 244.252C63.0674 244.312 62.1455 244.147 61.3033 243.769C60.8038 243.488 60.3999 243.063 60.1434 242.55C59.8869 242.038 59.7895 241.46 59.8636 240.891C60.1299 239.165 62.088 238.373 63.3549 237.445C65.1286 236.137 67.0065 234.977 68.9698 233.977Z" fill="url(#paint11_linear)"/>
        <path d="M122.996 111.47C122.031 114.197 119.396 115.974 116.704 117.039C112.198 118.823 107.26 119.14 102.415 119.32C98.3644 119.468 94.3092 119.533 90.2492 119.514C89.4704 119.553 88.6903 119.468 87.9384 119.262C86.4123 118.766 85.3829 117.384 84.4471 116.082C83.5112 114.779 82.4386 112.981 83.1441 111.448C83.8496 109.915 85.8076 109.57 87.4633 109.815C89.119 110.059 90.6739 110.729 92.3152 110.585L92.1136 108.275C92.8335 107.822 93.6613 108.563 94.2732 109.095C96.9007 111.254 100.752 110.477 104.056 109.577L118.165 105.721C119.735 105.289 121.556 104.224 122.715 105.721C123.759 107.095 123.507 109.995 122.996 111.47Z" fill="#F6C8C9"/>
        <path d="M82.2588 89.1423C82.0574 88.5414 81.6492 88.0315 81.107 87.7032C80.3871 87.2427 76.068 87.2499 73.9084 87.2859C73.1885 87.2859 73.1021 88.2285 73.678 89.3222L73.5844 89.1639L82.2588 89.1423Z" fill="#F99D9D"/>
        <path d="M82.2588 89.1423C82.0574 88.5414 81.6492 88.0315 81.107 87.7032C80.3871 87.2427 76.068 87.2499 73.9084 87.2859C73.1885 87.2859 73.1021 88.2285 73.678 89.3222L73.5844 89.1639L82.2588 89.1423Z" fill="url(#paint12_linear)"/>
        <path d="M100.709 15.074L99.5932 17.0815L102.415 18.1752L101.393 19.9668L98.9525 19.0026L98.247 20.5424L95.6339 19.902L96.5554 18.3407L94.3526 17.8514L95.3388 15.995L97.52 16.4627L98.3766 14.707L100.709 15.074Z" fill="#F99D9D"/>
    </g>
    <defs>
        <linearGradient id="paint0_linear" x1="103.66" y1="9.1237" x2="99.3014" y2="23.2348" gradientUnits="userSpaceOnUse">
            <stop offset="0.02" stop-color="white" stop-opacity="0"/>
            <stop offset="0.39" stop-color="white" stop-opacity="0.39"/>
            <stop offset="1" stop-color="white"/>
        </linearGradient>
        <linearGradient id="paint1_linear" x1="-2434.4" y1="3239.8" x2="-2591.8" y2="3220.68" gradientUnits="userSpaceOnUse">
            <stop offset="0.02" stop-color="white" stop-opacity="0"/>
            <stop offset="0.39" stop-color="white" stop-opacity="0.39"/>
            <stop offset="1" stop-color="white"/>
        </linearGradient>
        <linearGradient id="paint2_linear" x1="-6469.88" y1="16027.4" x2="-10169.8" y2="15722.8" gradientUnits="userSpaceOnUse">
            <stop offset="0.02" stop-color="white" stop-opacity="0"/>
            <stop offset="0.39" stop-color="white" stop-opacity="0.39"/>
            <stop offset="1" stop-color="white"/>
        </linearGradient>
        <linearGradient id="paint3_linear" x1="-5669.71" y1="12573.6" x2="-7795.19" y2="12573.6" gradientUnits="userSpaceOnUse">
            <stop offset="0.02" stop-color="white" stop-opacity="0"/>
            <stop offset="0.39" stop-color="white" stop-opacity="0.39"/>
            <stop offset="1" stop-color="white"/>
        </linearGradient>
        <linearGradient id="paint4_linear" x1="154.893" y1="155.008" x2="100.219" y2="156.161" gradientUnits="userSpaceOnUse">
            <stop offset="0.01"/>
            <stop offset="0.83" stop-opacity="0.07"/>
            <stop offset="1" stop-opacity="0"/>
        </linearGradient>
        <linearGradient id="paint5_linear" x1="-5996.3" y1="3795.05" x2="-5771.57" y2="4519.34" gradientUnits="userSpaceOnUse">
            <stop offset="0.01"/>
            <stop offset="0.83" stop-opacity="0.07"/>
            <stop offset="1" stop-opacity="0"/>
        </linearGradient>
        <linearGradient id="paint6_linear" x1="-5605.37" y1="5989.43" x2="-5069.57" y2="4016.54" gradientUnits="userSpaceOnUse">
            <stop offset="0.01"/>
            <stop offset="0.83" stop-opacity="0.07"/>
            <stop offset="1" stop-opacity="0"/>
        </linearGradient>
        <linearGradient id="paint7_linear" x1="-718.811" y1="7896.78" x2="-1030.47" y2="7902.57" gradientUnits="userSpaceOnUse">
            <stop offset="0.01"/>
            <stop offset="0.83" stop-opacity="0.07"/>
            <stop offset="1" stop-opacity="0"/>
        </linearGradient>
        <linearGradient id="paint8_linear" x1="-3353.9" y1="5124.53" x2="-4018.79" y2="5124.53" gradientUnits="userSpaceOnUse">
            <stop offset="0.02" stop-color="white" stop-opacity="0"/>
            <stop offset="0.39" stop-color="white" stop-opacity="0.39"/>
            <stop offset="1" stop-color="white"/>
        </linearGradient>
        <linearGradient id="paint9_linear" x1="-3759.39" y1="737.752" x2="-3769.74" y2="661.631" gradientUnits="userSpaceOnUse">
            <stop offset="0.02" stop-color="white" stop-opacity="0"/>
            <stop offset="0.39" stop-color="white" stop-opacity="0.39"/>
            <stop offset="1" stop-color="white"/>
        </linearGradient>
        <linearGradient id="paint10_linear" x1="-4223.37" y1="3989.31" x2="-5083.03" y2="3989.31" gradientUnits="userSpaceOnUse">
            <stop offset="0.01"/>
            <stop offset="0.83" stop-opacity="0.07"/>
            <stop offset="1" stop-opacity="0"/>
        </linearGradient>
        <linearGradient id="paint11_linear" x1="-5282.93" y1="3992.81" x2="-6142.6" y2="3992.81" gradientUnits="userSpaceOnUse">
            <stop offset="0.01"/>
            <stop offset="0.83" stop-opacity="0.07"/>
            <stop offset="1" stop-opacity="0"/>
        </linearGradient>
        <linearGradient id="paint12_linear" x1="-1936.59" y1="340.651" x2="-1936.5" y2="348.039" gradientUnits="userSpaceOnUse">
            <stop offset="0.02" stop-color="white" stop-opacity="0"/>
            <stop offset="0.39" stop-color="white" stop-opacity="0.39"/>
            <stop offset="1" stop-color="white"/>
        </linearGradient>
        <clipPath id="clip0">
            <rect width="189" height="247" fill="white" transform="matrix(-1 0 0 1 189 0)"/>
        </clipPath>
    </defs>
</svg>
