<svg width="197" height="171" viewBox="0 0 197 171" fill="none" xmlns="http://www.w3.org/2000/svg">
<path fill-rule="evenodd" clip-rule="evenodd" d="M27.8461 73.0414C33.637 33.2799 67.3556 3.271 108.327 3.271C153.231 3.271 189.764 39.9645 189.764 85.0659C189.764 130.161 153.231 166.861 108.327 166.861C89.7003 166.861 71.4827 160.372 57.0411 148.602C53.3235 145.56 52.7516 140.051 55.7737 136.317C58.7894 132.596 64.2749 132.008 68.0055 135.05C79.5094 144.437 93.4569 149.399 108.327 149.399C143.645 149.399 172.372 120.539 172.372 85.0659C172.372 49.5997 143.645 20.7397 108.327 20.7397C75.4083 20.7397 47.7796 46.3488 44.5884 78.7534L44.4454 78.7468L44.0879 80.6987L52.6346 75.757C56.1962 73.7138 60.7132 74.9411 62.754 78.4922C64.8013 82.0565 63.5795 86.613 60.0308 88.6628L30.9918 105.459L8.34154 79.0863C5.67031 75.9725 6.01478 71.2724 9.11496 68.5829C12.2281 65.8999 16.9142 66.2459 19.5789 69.3597L26.9492 77.9439L27.8396 73.0414H27.8461ZM141.422 89.3478L96.6868 114.839C95.9654 115.244 95.1725 115.46 94.3861 115.46C93.5736 115.46 92.7677 115.244 92.0333 114.813C90.5904 113.965 89.7195 112.45 89.7195 110.759V59.4042C89.7195 57.7135 90.5969 56.199 92.0463 55.3504C93.5217 54.4952 95.257 54.5018 96.7063 55.3439L141.448 81.2075C142.917 82.0627 143.794 83.5837 143.788 85.294C143.781 86.9912 142.897 88.5123 141.422 89.3478Z" fill="#F794A4"/>
</svg>
