<svg width="18" height="25" viewBox="0 0 18 25" fill="none" xmlns="http://www.w3.org/2000/svg">
<path fill-rule="evenodd" clip-rule="evenodd" d="M9.74137 0.440168L13.6294 5.02801C13.8867 5.33041 13.8492 5.78545 13.5449 6.04273C13.4095 6.15697 13.2454 6.21265 13.0803 6.21265C12.8758 6.21265 12.6732 6.12721 12.5302 5.95825L9.72025 2.64145V15.6005C9.72025 15.9979 9.39769 16.3205 9.00025 16.3205C8.60281 16.3205 8.28025 15.9979 8.28025 15.6005V2.65009L5.46937 5.96689C5.32729 6.13393 5.12377 6.22033 4.92025 6.22033C4.75513 6.22033 4.59001 6.16465 4.45369 6.04945C4.15129 5.79313 4.11385 5.33809 4.37017 5.03473L8.25913 0.446888C8.26275 0.442646 8.26789 0.43611 8.27452 0.427682C8.34893 0.333119 8.61065 0.000488281 9.00025 0.000488281C9.39566 0.000488281 9.64888 0.322806 9.7251 0.419826C9.73197 0.428571 9.7374 0.435485 9.74137 0.440168ZM3.47997 24.9574H14.52C15.9763 24.9574 17.16 23.7737 17.16 22.3174V11.2774C17.16 9.8211 15.9763 8.63742 14.52 8.63742H12.5836V10.0774H14.52C15.1814 10.0774 15.72 10.616 15.72 11.2774V22.3174C15.72 22.9789 15.1814 23.5174 14.52 23.5174H3.47997C2.81853 23.5174 2.27997 22.9789 2.27997 22.3174V11.2774C2.27997 10.616 2.81853 10.0774 3.47997 10.0774H5.45661V8.63742H3.47997C2.02365 8.63742 0.839966 9.8211 0.839966 11.2774V22.3174C0.839966 23.7737 2.02365 24.9574 3.47997 24.9574Z" fill="#F794A4"/>
</svg>
