<svg width="25" height="22" viewBox="0 0 25 22" fill="none" xmlns="http://www.w3.org/2000/svg">
<path d="M17.217 0C15.2472 0 13.5143 0.815522 12.1578 2.3695C10.8014 0.815522 9.0684 0 7.09861 0C3.11811 0 0 3.36669 0 7.66458C0 12.1761 3.44673 15.1367 8.21716 19.2342C9.04937 19.9492 9.91 20.6884 10.8222 21.4929C11.2054 21.8309 11.6816 22 12.1578 22C12.6341 22 13.1102 21.8309 13.4935 21.4929C14.4058 20.6882 15.2666 19.9489 16.0989 19.2339C20.5224 15.4345 24.3158 12.3417 24.3158 7.66458C24.3158 3.36669 21.1977 0 17.217 0Z" fill="#FA2E69"/>
</svg>
