<svg width="40" height="40" viewBox="0 0 40 40" fill="none" xmlns="http://www.w3.org/2000/svg">
<circle cx="20" cy="20" r="20" fill="#F794A4"/>
<path fill-rule="evenodd" clip-rule="evenodd" d="M26.3002 11.4626C26.917 10.8458 27.9206 10.8458 28.5374 11.4625C29.1541 12.0793 29.1541 13.0829 28.5374 13.6997L27.3817 14.8553C27.6657 15.283 27.8181 15.7846 27.8181 16.3097C27.8181 16.8614 27.6492 17.3868 27.3369 17.8281C27.6382 18.4172 27.5474 19.1641 27.046 19.6655L26.3003 20.4112C26.0944 20.6172 25.7605 20.6171 25.5546 20.4112L25.4121 20.2688L25.0339 21.4033C26.2446 22.8503 26.1744 25.0113 24.8088 26.3769C23.4831 27.7026 21.4212 27.7998 19.988 26.7234L18.1751 28.5363C17.5568 29.1546 16.5562 29.1545 15.938 28.5363L11.4637 24.062C10.8453 23.4437 10.8455 22.443 11.4637 21.8249L13.2766 20.0119C12.1972 18.5747 12.3008 16.5133 13.6231 15.1911C14.9895 13.8247 17.1504 13.756 18.5967 14.966L19.7311 14.5878L19.5887 14.4454C19.3828 14.2395 19.3828 13.9056 19.5887 13.6997L20.3344 12.954C20.8377 12.4508 21.5849 12.363 22.1718 12.663C22.6131 12.3508 23.1385 12.1818 23.6902 12.1818C24.2153 12.1818 24.7169 12.3343 25.1446 12.6183L26.3002 11.4626ZM17.6874 15.6011C16.6731 14.9276 15.2779 15.0278 14.3687 15.9369C13.4584 16.8472 13.3603 18.2427 14.0329 19.2556L17.6874 15.6011ZM17.4294 27.7906C17.2237 27.9962 16.8892 27.9962 16.6837 27.7906L12.2093 23.3163C12.0037 23.1107 12.0037 22.7761 12.2093 22.5706L13.2501 21.5298L14.3687 22.6484C14.5746 22.8543 14.9085 22.8544 15.1144 22.6484C15.3203 22.4424 15.3203 22.1086 15.1144 21.9027L13.9958 20.7841L14.7415 20.0384L15.8601 21.157C16.066 21.3629 16.3999 21.363 16.6058 21.157C16.8117 20.951 16.8117 20.6172 16.6058 20.4113L15.4872 19.2927L16.2329 18.547L17.3515 19.6656C17.5574 19.8715 17.8913 19.8716 18.0972 19.6656C18.3031 19.4597 18.3031 19.1258 18.0972 18.9199L16.9786 17.8013L17.7243 17.0556L18.8429 18.1742C19.0489 18.3801 19.3827 18.3802 19.5886 18.1742C19.7946 17.9683 19.7946 17.6344 19.5886 17.4285L18.47 16.3099L18.7549 16.0251L20.5647 15.4218L24.5783 19.435L23.975 21.2449L17.4294 27.7906ZM20.7447 25.9666C21.7679 26.6433 23.1627 26.5315 24.063 25.6313C24.9733 24.7209 25.0714 23.3255 24.3988 22.3126L20.7447 25.9666ZM26.3001 18.9198L25.9273 19.2926L20.7073 14.0726L21.0801 13.6998C21.2862 13.4937 21.6198 13.4937 21.8258 13.6998L26.3001 18.1741C26.5062 18.3801 26.5063 18.7137 26.3001 18.9198ZM26.3002 14.4455L27.7916 12.9541C27.9972 12.7484 27.9972 12.4139 27.7915 12.2083C27.586 12.0027 27.2515 12.0027 27.0458 12.2083L25.5544 13.6998C25.4555 13.7987 25.3214 13.8542 25.1816 13.8542C25.0417 13.8542 24.9076 13.7987 24.8087 13.6998C24.5099 13.401 24.1127 13.2364 23.6901 13.2364C23.45 13.2364 23.2181 13.2895 23.0078 13.3902L26.6097 16.9921C26.7104 16.7818 26.7635 16.5499 26.7635 16.3098C26.7635 15.8872 26.5989 15.49 26.3002 15.1912C26.2013 15.0923 26.1457 14.9582 26.1457 14.8183C26.1457 14.6785 26.2013 14.5444 26.3002 14.4455Z" fill="white"/>
</svg>
