<svg width="40" height="40" viewBox="0 0 40 40" fill="none" xmlns="http://www.w3.org/2000/svg">
<circle cx="20" cy="20" r="20" fill="#F794A4"/>
<path fill-rule="evenodd" clip-rule="evenodd" d="M25.1739 14.0619H13.8261C13.3939 14.0619 13.0435 14.4185 13.0435 14.8584V26.1416C13.0435 26.5815 13.3939 26.9381 13.8261 26.9381H25.1739C25.6061 26.9381 25.9565 26.5815 25.9565 26.1416V14.8584C25.9565 14.4185 25.6061 14.0619 25.1739 14.0619ZM13.8261 13C12.8176 13 12 13.832 12 14.8584V26.1416C12 27.168 12.8176 28 13.8261 28H25.1739C26.1824 28 27 27.168 27 26.1416V14.8584C27 13.832 26.1824 13 25.1739 13H13.8261Z" fill="white"/>
<path fill-rule="evenodd" clip-rule="evenodd" d="M23.4657 17.5295C23.0627 17.1937 22.6179 16.9109 22.1416 16.6889C21.3465 16.3184 20.4823 16.1263 19.6078 16.1257C18.7333 16.125 17.8688 16.3159 17.0732 16.6852C16.5966 16.9064 16.1514 17.1885 15.7478 17.5238L17.3948 18.9768C17.414 18.9762 17.4432 18.9723 17.4799 18.9609C17.5176 18.9493 17.5568 18.9317 17.5936 18.9094C17.7176 18.8339 17.8459 18.7654 17.9779 18.7041C18.4891 18.4668 19.0444 18.3442 19.6062 18.3446C20.168 18.3451 20.7231 18.4685 21.2339 18.7065C21.3659 18.768 21.4941 18.8367 21.618 18.9124C21.6547 18.9348 21.6939 18.9524 21.7316 18.9641C21.7683 18.9755 21.7975 18.9795 21.8167 18.9801L23.4657 17.5295ZM24.366 16.9163C24.7418 17.2586 24.6963 17.8506 24.3148 18.1862L22.4679 19.8109C22.0864 20.1465 21.5137 20.087 21.0813 19.8231C20.9904 19.7676 20.8963 19.7171 20.7995 19.672C20.4248 19.4974 20.0176 19.4069 19.6054 19.4066C19.1933 19.4063 18.7859 19.4962 18.411 19.6703C18.3141 19.7152 18.22 19.7655 18.129 19.8209C17.6962 20.0842 17.1234 20.1428 16.7423 19.8067L14.8978 18.1792C14.5168 17.8431 14.4722 17.251 14.8484 16.9092C15.3822 16.4243 15.986 16.0226 16.6401 15.719C17.572 15.2865 18.5844 15.063 19.6085 15.0637C20.6327 15.0645 21.6448 15.2895 22.576 15.7234C23.2297 16.028 23.8329 16.4306 24.366 16.9163Z" fill="white"/>
<path d="M19.1739 17.4469C19.1739 17.1903 19.3783 16.9823 19.6304 16.9823C19.8826 16.9823 20.087 17.1903 20.087 17.4469V18.5088C20.087 18.7654 19.8826 18.9735 19.6304 18.9735C19.3783 18.9735 19.1739 18.7654 19.1739 18.5088V17.4469Z" fill="white"/>
</svg>
