<svg width="40" height="40" viewBox="0 0 40 40" fill="none" xmlns="http://www.w3.org/2000/svg">
<circle cx="20" cy="20" r="20" fill="#F794A4"/>
<path fill-rule="evenodd" clip-rule="evenodd" d="M14.7555 12.413H25.4638C25.6577 12.413 25.8149 12.5712 25.8149 12.7663V19.8315H27.2193V12.7663C27.2193 11.7908 26.4333 11 25.4638 11H14.7555C13.7859 11 13 11.7908 13 12.7663V26.8966C13 27.8721 13.7859 28.6629 14.7555 28.6629H20.8996V27.2499H14.7555C14.5616 27.2499 14.4044 27.0917 14.4044 26.8966V12.7663C14.4044 12.5712 14.5616 12.413 14.7555 12.413Z" fill="white"/>
<path fill-rule="evenodd" clip-rule="evenodd" d="M25.9047 21.9377L23.6878 26.9342L23.8623 27.6843L24.5657 27.3153L26.7777 22.3298L25.9047 21.9377ZM25.8531 20.754C25.5875 20.6347 25.2761 20.7546 25.1575 21.0218L22.6537 26.6652C22.6068 26.771 22.5956 26.8892 22.6218 27.002L22.9914 28.5906C23.0698 28.9274 23.4428 29.0996 23.7477 28.9396L25.2153 28.1697C25.3207 28.1144 25.4043 28.0249 25.4528 27.9158L27.9541 22.278C28.0727 22.0107 27.9535 21.6974 27.6879 21.5781L25.8531 20.754Z" fill="white"/>
<path fill-rule="evenodd" clip-rule="evenodd" d="M16.1598 15.2391C16.1598 14.8489 16.4742 14.5326 16.862 14.5326H23.5328C23.9206 14.5326 24.235 14.8489 24.235 15.2391C24.235 15.6293 23.9206 15.9456 23.5328 15.9456H16.862C16.4742 15.9456 16.1598 15.6293 16.1598 15.2391Z" fill="white"/>
<path fill-rule="evenodd" clip-rule="evenodd" d="M16.1598 17.7119C16.1598 17.3217 16.4742 17.0054 16.862 17.0054H23.5328C23.9206 17.0054 24.235 17.3217 24.235 17.7119C24.235 18.1021 23.9206 18.4184 23.5328 18.4184H16.862C16.4742 18.4184 16.1598 18.1021 16.1598 17.7119Z" fill="white"/>
<path fill-rule="evenodd" clip-rule="evenodd" d="M16.1598 20.1847C16.1598 19.7945 16.4742 19.4782 16.862 19.4782H23.5328C23.9206 19.4782 24.235 19.7945 24.235 20.1847C24.235 20.5749 23.9206 20.8912 23.5328 20.8912H16.862C16.4742 20.8912 16.1598 20.5749 16.1598 20.1847Z" fill="white"/>
</svg>
