<svg width="40" height="40" viewBox="0 0 40 40" fill="none" xmlns="http://www.w3.org/2000/svg">
<circle cx="20" cy="20" r="20" fill="#F794A4"/>
<path fill-rule="evenodd" clip-rule="evenodd" d="M15.2835 14.0208V25.9792H23.315V14.0208H15.2835ZM15.0157 13C14.6461 13 14.3465 13.3265 14.3465 13.7292V26.2708C14.3465 26.6735 14.6461 27 15.0157 27H23.5827C23.9523 27 24.252 26.6735 24.252 26.2708V13.7292C24.252 13.3265 23.9523 13 23.5827 13H15.0157Z" fill="white"/>
<path d="M11 25.9792H28V27H11V25.9792Z" fill="white"/>
<path fill-rule="evenodd" clip-rule="evenodd" d="M16.3543 15.7708V16.5H17.1575V15.7708H16.3543ZM16.0866 15.1875C15.9388 15.1875 15.8189 15.3181 15.8189 15.4792V16.7917C15.8189 16.9527 15.9388 17.0833 16.0866 17.0833H17.4252C17.5731 17.0833 17.6929 16.9527 17.6929 16.7917V15.4792C17.6929 15.3181 17.5731 15.1875 17.4252 15.1875H16.0866Z" fill="white"/>
<path fill-rule="evenodd" clip-rule="evenodd" d="M18.8976 15.7708V16.5H19.7008V15.7708H18.8976ZM18.6299 15.1875C18.4821 15.1875 18.3622 15.3181 18.3622 15.4792V16.7917C18.3622 16.9527 18.4821 17.0833 18.6299 17.0833H19.9685C20.1164 17.0833 20.2362 16.9527 20.2362 16.7917V15.4792C20.2362 15.3181 20.1164 15.1875 19.9685 15.1875H18.6299Z" fill="white"/>
<path fill-rule="evenodd" clip-rule="evenodd" d="M21.4409 15.7708V16.5H22.2441V15.7708H21.4409ZM21.1732 15.1875C21.0254 15.1875 20.9055 15.3181 20.9055 15.4792V16.7917C20.9055 16.9527 21.0254 17.0833 21.1732 17.0833H22.5118C22.6597 17.0833 22.7795 16.9527 22.7795 16.7917V15.4792C22.7795 15.3181 22.6597 15.1875 22.5118 15.1875H21.1732Z" fill="white"/>
<path fill-rule="evenodd" clip-rule="evenodd" d="M16.3543 18.8333V19.5625H17.1575V18.8333H16.3543ZM16.0866 18.25C15.9388 18.25 15.8189 18.3806 15.8189 18.5417V19.8542C15.8189 20.0152 15.9388 20.1458 16.0866 20.1458H17.4252C17.5731 20.1458 17.6929 20.0152 17.6929 19.8542V18.5417C17.6929 18.3806 17.5731 18.25 17.4252 18.25H16.0866Z" fill="white"/>
<path fill-rule="evenodd" clip-rule="evenodd" d="M18.8976 18.8333V19.5625H19.7008V18.8333H18.8976ZM18.6299 18.25C18.4821 18.25 18.3622 18.3806 18.3622 18.5417V19.8542C18.3622 20.0152 18.4821 20.1458 18.6299 20.1458H19.9685C20.1164 20.1458 20.2362 20.0152 20.2362 19.8542V18.5417C20.2362 18.3806 20.1164 18.25 19.9685 18.25H18.6299Z" fill="white"/>
<path fill-rule="evenodd" clip-rule="evenodd" d="M21.4409 18.8333V19.5625H22.2441V18.8333H21.4409ZM21.1732 18.25C21.0254 18.25 20.9055 18.3806 20.9055 18.5417V19.8542C20.9055 20.0152 21.0254 20.1458 21.1732 20.1458H22.5118C22.6597 20.1458 22.7795 20.0152 22.7795 19.8542V18.5417C22.7795 18.3806 22.6597 18.25 22.5118 18.25H21.1732Z" fill="white"/>
<path fill-rule="evenodd" clip-rule="evenodd" d="M16.3543 21.8958V22.625H17.1575V21.8958H16.3543ZM16.0866 21.3125C15.9388 21.3125 15.8189 21.4431 15.8189 21.6042V22.9167C15.8189 23.0777 15.9388 23.2083 16.0866 23.2083H17.4252C17.5731 23.2083 17.6929 23.0777 17.6929 22.9167V21.6042C17.6929 21.4431 17.5731 21.3125 17.4252 21.3125H16.0866Z" fill="white"/>
<path fill-rule="evenodd" clip-rule="evenodd" d="M18.8976 21.8958V22.625H19.7008V21.8958H18.8976ZM18.6299 21.3125C18.4821 21.3125 18.3622 21.4431 18.3622 21.6042V22.9167C18.3622 23.0777 18.4821 23.2083 18.6299 23.2083H19.9685C20.1164 23.2083 20.2362 23.0777 20.2362 22.9167V21.6042C20.2362 21.4431 20.1164 21.3125 19.9685 21.3125H18.6299Z" fill="white"/>
<path fill-rule="evenodd" clip-rule="evenodd" d="M21.4409 21.8958V22.625H22.2441V21.8958H21.4409ZM21.1732 21.3125C21.0254 21.3125 20.9055 21.4431 20.9055 21.6042V22.9167C20.9055 23.0777 21.0254 23.2083 21.1732 23.2083H22.5118C22.6597 23.2083 22.7795 23.0777 22.7795 22.9167V21.6042C22.7795 21.4431 22.6597 21.3125 22.5118 21.3125H21.1732Z" fill="white"/>
</svg>
