<svg width="40" height="40" viewBox="0 0 40 40" fill="none" xmlns="http://www.w3.org/2000/svg">
<circle cx="20" cy="20" r="20" fill="#F794A4"/>
<path d="M18.3067 23.054H14.6527L14.0507 25H12.4267L15.7867 15.2H17.1727L20.5327 25H18.9087L18.3067 23.054ZM17.9147 21.808L16.4867 17.174L15.0447 21.808H17.9147ZM23.4215 25.14C22.9642 25.14 22.5535 25.0467 22.1895 24.86C21.8348 24.6733 21.5548 24.4167 21.3495 24.09C21.1535 23.754 21.0555 23.376 21.0555 22.956C21.0555 22.2467 21.3262 21.7053 21.8675 21.332C22.4088 20.9493 23.1788 20.758 24.1775 20.758H25.4935V20.408C25.4935 19.9413 25.3675 19.582 25.1155 19.33C24.8635 19.078 24.4948 18.952 24.0095 18.952C23.5895 18.952 23.1975 19.036 22.8335 19.204C22.4695 19.3627 22.1708 19.596 21.9375 19.904L21.2795 19.078C21.6155 18.686 22.0215 18.3873 22.4975 18.182C22.9828 17.9673 23.5055 17.86 24.0655 17.86C24.9615 17.86 25.6568 18.0793 26.1515 18.518C26.6462 18.9473 26.8935 19.5587 26.8935 20.352V23.6C26.8935 24.02 26.9495 24.4867 27.0615 25H25.8435C25.7502 24.776 25.6848 24.4633 25.6475 24.062H25.6195C25.0875 24.7807 24.3548 25.14 23.4215 25.14ZM23.6875 24.062C24.1915 24.062 24.6162 23.9267 24.9615 23.656C25.3162 23.376 25.4935 23.04 25.4935 22.648V21.724H24.1215C23.5708 21.724 23.1462 21.8313 22.8475 22.046C22.5582 22.2513 22.4135 22.5547 22.4135 22.956C22.4135 23.3013 22.5255 23.572 22.7495 23.768C22.9828 23.964 23.2955 24.062 23.6875 24.062Z" fill="white"/>
</svg>
